<svg id="glare" xmlns="http://www.w3.org/2000/svg" xmlns:xlink="http://www.w3.org/1999/xlink" width="5780px" height="5780px" viewBox="0 0 578 578">
	<style>
		.light { display: none }
		.grooves { stroke: #000; opacity: 0.1 }
		.grooves :nth-child(24) { display: none }
		#glare:target .light { display: initial; fill: #fff; opacity: 0.05  }
		#glare:target .grooves { opacity: 0.25 }
	</style>
	<circle class="light" r="289" cx="289" cy="289" />
	<g class="grooves" fill="none" stroke-width="0.4">
		<circle cx="289" cy="289" r="280"/>
		<circle cx="289" cy="289" r="277.8972602739726"/>
		<circle cx="289" cy="289" r="275.79452054794524"/>
		<circle cx="289" cy="289" r="273.69178082191786"/>
		<circle cx="289" cy="289" r="271.5890410958905"/>
		<circle cx="289" cy="289" r="269.4863013698631"/>
		<circle cx="289" cy="289" r="267.3835616438357"/>
		<circle cx="289" cy="289" r="265.28082191780834"/>
		<circle cx="289" cy="289" r="263.17808219178096"/>
		<circle cx="289" cy="289" r="261.0753424657536"/>
		<circle cx="289" cy="289" r="258.9726027397262"/>
		<circle cx="289" cy="289" r="256.8698630136988"/>
		<circle cx="289" cy="289" r="254.7671232876714"/>
		<circle cx="289" cy="289" r="252.664383561644"/>
		<circle cx="289" cy="289" r="250.5616438356166"/>
		<circle cx="289" cy="289" r="248.45890410958918"/>
		<circle cx="289" cy="289" r="246.35616438356178"/>
		<circle cx="289" cy="289" r="244.25342465753437"/>
		<circle cx="289" cy="289" r="242.15068493150696"/>
		<circle cx="289" cy="289" r="240.04794520547955"/>
		<circle cx="289" cy="289" r="237.94520547945214"/>
		<circle cx="289" cy="289" r="235.84246575342473"/>
		<circle cx="289" cy="289" r="233.73972602739732"/>
		<circle cx="289" cy="289" r="231.63698630136992"/>
		<circle cx="289" cy="289" r="229.5342465753425"/>
		<circle cx="289" cy="289" r="227.4315068493151"/>
		<circle cx="289" cy="289" r="225.3287671232877"/>
		<circle cx="289" cy="289" r="223.22602739726028"/>
		<circle cx="289" cy="289" r="221.12328767123287"/>
		<circle cx="289" cy="289" r="219.02054794520546"/>
		<circle cx="289" cy="289" r="216.91780821917806"/>
		<circle cx="289" cy="289" r="214.81506849315065"/>
		<circle cx="289" cy="289" r="212.71232876712324"/>
		<circle cx="289" cy="289" r="210.60958904109583"/>
		<circle cx="289" cy="289" r="208.50684931506842"/>
		<circle cx="289" cy="289" r="206.404109589041"/>
		<circle cx="289" cy="289" r="204.3013698630136"/>
		<circle cx="289" cy="289" r="202.1986301369862"/>
		<circle cx="289" cy="289" r="200.0958904109588"/>
		<circle cx="289" cy="289" r="197.99315068493138"/>
		<circle cx="289" cy="289" r="195.89041095890397"/>
		<circle cx="289" cy="289" r="193.78767123287656"/>
		<circle cx="289" cy="289" r="191.68493150684915"/>
		<circle cx="289" cy="289" r="189.58219178082174"/>
		<circle cx="289" cy="289" r="187.47945205479434"/>
		<circle cx="289" cy="289" r="185.37671232876693"/>
		<circle cx="289" cy="289" r="183.27397260273952"/>
		<circle cx="289" cy="289" r="181.1712328767121"/>
		<circle cx="289" cy="289" r="179.0684931506847"/>
		<circle cx="289" cy="289" r="176.9657534246573"/>
		<circle cx="289" cy="289" r="174.86301369862989"/>
		<circle cx="289" cy="289" r="172.76027397260248"/>
		<circle cx="289" cy="289" r="170.65753424657507"/>
		<circle cx="289" cy="289" r="168.55479452054766"/>
		<circle cx="289" cy="289" r="166.45205479452025"/>
		<circle cx="289" cy="289" r="164.34931506849284"/>
		<circle cx="289" cy="289" r="162.24657534246543"/>
		<circle cx="289" cy="289" r="160.14383561643803"/>
		<circle cx="289" cy="289" r="158.04109589041062"/>
		<circle cx="289" cy="289" r="155.9383561643832"/>
		<circle cx="289" cy="289" r="153.8356164383558"/>
		<circle cx="289" cy="289" r="151.7328767123284"/>
		<circle cx="289" cy="289" r="149.63013698630098"/>
		<circle cx="289" cy="289" r="147.52739726027357"/>
		<circle cx="289" cy="289" r="145.42465753424617"/>
		<circle cx="289" cy="289" r="143.32191780821876"/>
		<circle cx="289" cy="289" r="141.21917808219135"/>
		<circle cx="289" cy="289" r="139.11643835616394"/>
		<circle cx="289" cy="289" r="137.01369863013653"/>
		<circle cx="289" cy="289" r="134.91095890410912"/>
		<circle cx="289" cy="289" r="132.8082191780817"/>
		<circle cx="289" cy="289" r="130.7054794520543"/>
		<circle cx="289" cy="289" r="128.6027397260269"/>
		<circle cx="289" cy="289" r="126.5"/>
	</g>
</svg>
