<?xml version="1.0" encoding="utf-8"?>
<!-- Generator: Adobe Illustrator 16.0.0, SVG Export Plug-In . SVG Version: 6.00 Build 0)  -->
<!DOCTYPE svg PUBLIC "-//W3C//DTD SVG 1.1//EN" "http://www.w3.org/Graphics/SVG/1.1/DTD/svg11.dtd">
<svg version="1.1" id="Layer_1" xmlns="http://www.w3.org/2000/svg" xmlns:xlink="http://www.w3.org/1999/xlink" x="0px" y="0px"
	 width="1008px" height="1008px" viewBox="0 0 1008 1008" enable-background="new 0 0 1008 1008" xml:space="preserve">
<g>
	<g id="burst">
		<g>
			<polygon fill="#A8A7A6" points="507.637,503.459 469.301,248.286 447.911,130.693 462.02,249.332 500.362,504.547 			"/>
			<polygon fill="#A8A7A6" points="507.675,504 507.675,245.961 503.997,126.5 500.32,245.914 500.32,504 			"/>
			<polygon fill="#A8A7A6" points="500.32,504 500.32,762.039 503.997,881.5 507.675,762.086 507.675,504 			"/>
			<polygon fill="#A8A7A6" points="507.633,504.551 546.215,249.411 560.44,130.743 538.95,248.266 500.361,503.45 			"/>
			<polygon fill="#A8A7A6" points="500.361,503.45 461.779,758.589 447.553,877.257 469.043,759.734 507.633,504.551 			"/>
			<polygon fill="#A8A7A6" points="507.509,505.087 583.693,258.549 615.45,143.328 576.681,256.333 500.483,502.914 			"/>
			<polygon fill="#A8A7A6" points="500.483,502.914 424.3,749.45 392.543,864.672 431.313,751.666 507.509,505.087 			"/>
			<polygon fill="#A8A7A6" points="507.308,505.599 619.385,273.167 667.96,163.966 612.781,269.932 500.685,502.402 			"/>
			<polygon fill="#A8A7A6" points="500.685,502.402 388.608,734.833 340.035,844.035 395.213,738.067 507.308,505.599 			"/>
			<polygon fill="#A8A7A6" points="507.033,506.075 652.496,292.941 716.802,192.198 646.448,288.757 500.961,501.926 			"/>
			<polygon fill="#A8A7A6" points="500.961,501.926 355.498,715.06 291.193,815.803 361.546,719.242 507.033,506.075 			"/>
			<polygon fill="#A8A7A6" points="506.69,506.506 682.294,317.431 760.896,227.396 676.938,312.393 501.304,501.497 			"/>
			<polygon fill="#A8A7A6" points="501.304,501.497 325.701,690.569 247.1,780.604 331.059,695.608 506.69,506.506 			"/>
			<polygon fill="#A8A7A6" points="506.69,506.506 682.294,317.431 760.896,227.396 676.938,312.393 501.304,501.497 			"/>
			<polygon fill="#A8A7A6" points="501.304,501.497 325.701,690.569 247.1,780.604 331.059,695.608 506.69,506.506 			"/>
			<polygon fill="#A8A7A6" points="506.288,506.879 708.108,346.088 799.253,268.775 703.564,340.308 501.708,501.125 			"/>
			<polygon fill="#A8A7A6" points="501.708,501.125 299.887,661.911 208.745,739.229 304.433,667.692 506.288,506.879 			"/>
			<polygon fill="#A8A7A6" points="505.833,507.189 729.365,378.274 831.014,315.408 725.732,371.881 502.163,500.815 			"/>
			<polygon fill="#A8A7A6" points="502.163,500.815 278.631,629.726 176.984,692.597 282.266,636.12 505.833,507.189 			"/>
			<polygon fill="#A8A7A6" points="505.338,507.428 745.587,413.267 855.47,366.253 742.947,406.403 502.658,500.578 			"/>
			<polygon fill="#A8A7A6" points="502.658,500.578 262.411,594.732 152.529,641.753 265.051,601.599 505.338,507.428 			"/>
			<polygon fill="#A8A7A6" points="504.813,507.589 756.412,450.287 872.074,420.177 754.826,443.107 503.184,500.417 			"/>
			<polygon fill="#A8A7A6" points="503.184,500.417 251.586,557.713 135.922,587.829 253.173,564.896 504.813,507.589 			"/>
			<polygon fill="#A8A7A6" points="504.269,507.669 761.598,488.507 880.457,475.97 761.1,481.171 503.728,500.333 			"/>
			<polygon fill="#A8A7A6" points="503.728,500.333 246.401,519.491 127.541,532.033 246.9,526.83 504.269,507.669 			"/>
			<polygon fill="#A8A7A6" points="503.719,507.669 761.029,527.07 880.43,532.387 761.632,519.741 504.276,500.334 			"/>
			<polygon fill="#A8A7A6" points="504.276,500.334 246.969,480.928 127.567,475.616 246.369,488.26 503.719,507.669 			"/>
			<polygon fill="#A8A7A6" points="503.175,507.585 754.719,565.128 871.992,588.187 756.404,557.971 504.82,500.417 			"/>
			<polygon fill="#A8A7A6" points="504.82,500.417 253.281,442.869 136.003,419.816 251.594,450.029 503.175,507.585 			"/>
			<polygon fill="#A8A7A6" points="502.65,507.422 742.809,601.812 855.337,642.089 745.544,594.986 505.346,500.58 			"/>
			<polygon fill="#A8A7A6" points="505.346,500.58 265.191,406.187 152.661,365.914 262.458,413.016 502.65,507.422 			"/>
			<polygon fill="#A8A7A6" points="502.156,507.184 725.562,636.313 830.829,692.915 729.285,629.972 505.841,500.819 			"/>
			<polygon fill="#A8A7A6" points="505.841,500.819 282.439,371.686 177.167,315.089 278.718,378.03 502.156,507.184 			"/>
			<polygon fill="#A8A7A6" points="502.156,507.184 725.562,636.313 830.829,692.915 729.285,629.972 505.841,500.819 			"/>
			<polygon fill="#A8A7A6" points="505.841,500.819 282.439,371.686 177.167,315.089 278.718,378.03 502.156,507.184 			"/>
			<polygon fill="#A8A7A6" points="501.703,506.875 703.371,667.854 799.028,739.51 707.999,662.136 506.295,501.129 			"/>
			<polygon fill="#A8A7A6" points="506.295,501.129 304.63,340.146 208.969,268.494 300.006,345.866 501.703,506.875 			"/>
			<polygon fill="#A8A7A6" points="501.304,506.506 677.04,695.454 761.088,780.429 682.46,690.481 506.693,501.498 			"/>
			<polygon fill="#A8A7A6" points="506.693,501.498 330.963,312.548 246.908,227.577 325.545,317.523 501.304,506.506 			"/>
			<polygon fill="#A8A7A6" points="500.957,506.069 646.213,719.344 716.495,816.014 652.32,715.245 507.04,501.933 			"/>
			<polygon fill="#A8A7A6" points="507.04,501.933 361.791,288.659 291.5,191.991 355.684,292.76 500.957,506.069 			"/>
			<polygon fill="#A8A7A6" points="500.683,505.595 612.533,738.134 667.624,844.197 619.183,734.991 507.314,502.41 			"/>
			<polygon fill="#A8A7A6" points="507.314,502.41 395.47,269.871 340.371,163.808 388.821,273.017 500.683,505.595 			"/>
			<polygon fill="#A8A7A6" points="500.483,505.083 576.428,751.693 615.097,864.783 583.472,749.577 507.515,502.923 			"/>
			<polygon fill="#A8A7A6" points="507.515,502.923 431.576,256.313 392.899,143.223 424.532,258.433 500.483,505.083 			"/>
			<polygon fill="#A8A7A6" points="500.362,504.547 538.702,759.723 560.084,877.313 545.983,758.679 507.637,503.459 			"/>
		</g>
		<g>
			<polygon fill="#A8A7A6" points="500.335,504.273 519.615,761.561 536.146,935.805 526.957,761.061 507.669,503.725 			"/>
			<polygon fill="#A8A7A6" points="507.669,503.725 488.385,246.438 471.855,72.195 481.047,246.942 500.335,504.273 			"/>
			<polygon fill="#A8A7A6" points="507.663,504.271 526.945,246.984 536.573,72.224 519.615,246.388 500.33,503.722 			"/>
			<polygon fill="#A8A7A6" points="500.33,503.722 481.048,761.008 471.421,935.768 488.378,761.605 507.663,504.271 			"/>
			<polygon fill="#A8A7A6" points="507.581,504.814 564.995,253.275 600.56,81.902 557.834,251.592 500.412,503.179 			"/>
			<polygon fill="#A8A7A6" points="500.412,503.179 443,754.717 407.435,926.091 450.159,756.399 507.581,504.814 			"/>
			<polygon fill="#A8A7A6" points="507.419,505.341 601.68,265.166 662.389,101.007 594.85,262.435 500.574,502.654 			"/>
			<polygon fill="#A8A7A6" points="500.574,502.654 406.316,742.828 345.608,906.985 413.145,745.558 507.419,505.341 			"/>
			<polygon fill="#A8A7A6" points="507.181,505.837 636.186,282.393 720.684,129.116 629.839,278.674 500.813,502.159 			"/>
			<polygon fill="#A8A7A6" points="500.813,502.159 371.813,725.601 287.314,878.878 378.157,729.318 507.181,505.837 			"/>
			<polygon fill="#A8A7A6" points="506.872,506.29 667.739,304.571 774.138,165.599 662.017,299.947 501.123,501.705 			"/>
			<polygon fill="#A8A7A6" points="501.123,501.705 340.259,703.425 233.859,842.396 345.978,708.046 506.872,506.29 			"/>
			<polygon fill="#A8A7A6" points="506.498,506.693 695.626,331.194 821.544,209.626 690.656,325.77 501.497,501.302 			"/>
			<polygon fill="#A8A7A6" points="501.497,501.302 312.373,676.802 186.455,798.369 317.34,682.225 506.498,506.693 			"/>
			<polygon fill="#A8A7A6" points="506.068,507.037 719.245,361.692 861.879,260.254 715.14,355.588 501.927,500.959 			"/>
			<polygon fill="#A8A7A6" points="501.927,500.959 288.753,646.306 146.119,747.74 292.856,652.407 506.068,507.037 			"/>
			<polygon fill="#A8A7A6" points="505.593,507.311 738.047,395.354 894.204,316.305 734.898,388.707 502.402,500.685 			"/>
			<polygon fill="#A8A7A6" points="502.402,500.685 269.951,612.642 113.794,691.691 273.099,619.286 505.593,507.311 			"/>
			<polygon fill="#A8A7A6" points="505.082,507.512 751.626,431.453 917.821,376.562 749.503,424.41 502.915,500.485 			"/>
			<polygon fill="#A8A7A6" points="502.915,500.485 256.373,576.545 90.178,631.434 258.495,583.584 505.082,507.512 			"/>
			<polygon fill="#A8A7A6" points="504.546,507.633 759.672,469.168 932.192,439.66 758.624,461.888 503.451,500.362 			"/>
			<polygon fill="#A8A7A6" points="503.451,500.362 248.326,538.828 75.808,568.336 249.375,546.106 504.546,507.633 			"/>
			<polygon fill="#A8A7A6" points="503.998,507.674 762.008,507.666 937,504.201 762.057,500.31 503.999,500.322 			"/>
			<polygon fill="#A8A7A6" points="503.999,500.322 245.991,500.333 71,503.796 245.943,507.686 503.998,507.674 			"/>
			<polygon fill="#A8A7A6" points="503.45,507.633 758.578,546.091 932.131,568.752 759.723,538.822 504.547,500.363 			"/>
			<polygon fill="#A8A7A6" points="504.547,500.363 249.42,461.909 75.87,439.246 248.278,469.173 503.45,507.633 			"/>
			<polygon fill="#A8A7A6" points="502.915,507.51 749.465,583.547 917.706,631.813 751.682,576.533 505.084,500.485 			"/>
			<polygon fill="#A8A7A6" points="505.084,500.485 258.533,424.45 90.295,376.185 256.321,431.463 502.915,507.51 			"/>
			<polygon fill="#A8A7A6" points="502.403,507.309 734.867,619.243 894.036,692.045 738.105,612.638 505.596,500.685 			"/>
			<polygon fill="#A8A7A6" points="505.596,500.685 273.13,388.754 113.965,315.953 269.897,395.358 502.403,507.309 			"/>
			<polygon fill="#A8A7A6" points="501.929,507.033 715.107,652.372 861.645,748.087 719.296,646.321 506.072,500.959 			"/>
			<polygon fill="#A8A7A6" points="506.072,500.959 292.89,355.625 146.356,259.91 288.709,361.674 501.929,507.033 			"/>
			<polygon fill="#A8A7A6" points="501.5,506.691 690.637,682.178 821.271,798.662 695.68,676.819 506.502,501.302 			"/>
			<polygon fill="#A8A7A6" points="506.502,501.302 317.361,325.818 186.729,209.333 312.325,331.177 501.5,506.691 			"/>
			<polygon fill="#A8A7A6" points="501.126,506.288 661.991,708.009 773.803,842.666 667.776,703.462 506.877,501.705 			"/>
			<polygon fill="#A8A7A6" points="506.877,501.705 346.007,299.988 234.199,165.332 340.229,304.536 501.126,506.288 			"/>
			<polygon fill="#A8A7A6" points="500.816,505.835 629.827,729.275 720.325,879.087 636.225,725.641 507.187,502.16 			"/>
			<polygon fill="#A8A7A6" points="507.187,502.16 378.171,278.723 287.675,128.91 371.78,282.359 500.816,505.835 			"/>
			<polygon fill="#A8A7A6" points="500.578,505.341 594.836,745.515 661.989,907.146 601.705,742.875 507.425,502.655 			"/>
			<polygon fill="#A8A7A6" points="507.425,502.655 413.163,262.481 346.011,100.852 406.3,265.125 500.578,505.341 			"/>
			<polygon fill="#A8A7A6" points="500.417,504.814 557.826,756.356 600.141,926.19 565.013,754.769 507.587,503.181 			"/>
			<polygon fill="#A8A7A6" points="507.587,503.181 450.173,251.641 407.861,81.809 442.993,253.232 500.417,504.814 			"/>
		</g>
	</g>
	<circle id="burst-mask_1_" cx="504" cy="504" r="257.908"/>
</g>
</svg>
