<svg version="1.1" xmlns="http://www.w3.org/2000/svg" xmlns:xlink="http://www.w3.org/1999/xlink" viewBox="0 0 504 504">
	<symbol id="reflections" viewBox="0 0 504 504">
		<path d="M252,252L23.337,351.929c24.089,55.042,67.457,99.716,121.577,125.474L252,252z"/>
		<path d="M252,252l228.663-99.929c-24.089-55.042-67.457-99.715-121.577-125.473L252,252z"/>
	</symbol>

	<symbol id="grooves" viewBox="0 0 504 504">
		<g fill="none" stroke-width="0.25">
			<g id="transfers">
				<circle cx="252" cy="252" r="139.75"/>
				<path d="M252,412c88.366,0,156.625-71.634,156.625-160
					c0-86.502-70.123-153.25-156.625-153.25v0c-84.639,0-149.875,68.611-149.875,153.25c0,82.773,67.102,146.5,149.875,146.5
					c80.91,0,143.125-65.59,143.125-146.5l0,0c0-79.047-64.078-139.75-143.125-139.75"/>
				<path d="M252,464.201
					c116.674,0,211.258-94.584,211.258-211.258c0-116.674-94.584-211.257-211.258-211.257"/>
				<path d="M2.5,252
					c0,137.796,111.704,247.767,249.5,247.767c136.838,0,246.033-110.929,246.033-247.767C498.033,116.119,387.881,7.7,252,7.7
					C117.076,7.7,9.434,117.077,9.434,252c0,133.966,108.601,240.833,242.566,240.833"/>
				<path d="M501.5,252
					C501.5,114.205,389.795,4.233,252,4.233C115.162,4.233,5.967,115.162,5.967,252c0,135.881,110.152,244.3,246.033,244.3
					c134.924,0,242.566-109.376,242.566-244.3c0-133.966-108.601-240.833-242.566-240.833"/>
			</g>

			<g id="track-2">
				<circle cx="252" cy="252" r="159.698"/>
				<circle cx="252" cy="252" r="160.465"/>
				<circle cx="252" cy="252" r="161.232"/>
				<circle cx="252" cy="252" r="161.999"/>
				<circle cx="252" cy="252" r="162.766"/>
				<circle cx="252" cy="252" r="163.532"/>
				<circle cx="252" cy="252" r="164.3"/>
				<circle cx="252" cy="252" r="165.067"/>
				<circle cx="252" cy="252" r="165.833"/>
				<circle cx="252" cy="252" r="166.601"/>
				<circle cx="252" cy="252" r="167.367"/>
				<circle cx="252" cy="252" r="168.134"/>
				<circle cx="252" cy="252" r="168.901"/>
				<circle cx="252" cy="252" r="169.668"/>
				<circle cx="252" cy="252" r="170.435"/>
				<circle cx="252" cy="252" r="171.202"/>
				<circle cx="252" cy="252" r="171.969"/>
				<circle cx="252" cy="252" r="172.736"/>
				<circle cx="252" cy="252" r="173.503"/>
				<circle cx="252" cy="252" r="174.27"/>
				<circle cx="252" cy="252" r="175.037"/>
				<circle cx="252" cy="252" r="175.803"/>
				<circle cx="252" cy="252" r="176.57"/>
				<circle cx="252" cy="252" r="177.337"/>
				<circle cx="252" cy="252" r="178.104"/>
				<circle cx="252" cy="252" r="178.871"/>
				<circle cx="252" cy="252" r="179.638"/>
				<circle cx="252" cy="252" r="180.405"/>
				<circle cx="252" cy="252" r="181.172"/>
				<circle cx="252" cy="252" r="181.939"/>
				<circle cx="252" cy="252" r="182.705"/>
				<circle cx="252" cy="252" r="183.473"/>
				<circle cx="252" cy="252" r="184.239"/>
				<circle cx="252" cy="252" r="185.006"/>
				<circle cx="252" cy="252" r="185.773"/>
				<circle cx="252" cy="252" r="186.54"/>
				<circle cx="252" cy="252" r="187.307"/>
				<circle cx="252" cy="252" r="188.074"/>
				<circle cx="252" cy="252" r="188.841"/>
				<circle cx="252" cy="252" r="189.607"/>
				<circle cx="252" cy="252" r="190.375"/>
				<circle cx="252" cy="252" r="191.142"/>
				<circle cx="252" cy="252" r="191.908"/>
				<circle cx="252" cy="252" r="192.675"/>
				<circle cx="252" cy="252" r="193.442"/>
				<circle cx="252" cy="252" r="194.209"/>
				<circle cx="252" cy="252" r="194.976"/>
				<circle cx="252" cy="252" r="195.743"/>
				<circle cx="252" cy="252" r="196.51"/>
				<circle cx="252" cy="252" r="197.277"/>
				<circle cx="252" cy="252" r="198.044"/>
				<circle cx="252" cy="252" r="198.811"/>
				<circle cx="252" cy="252" r="199.578"/>
				<circle cx="252" cy="252" r="200.344"/>
				<circle cx="252" cy="252" r="201.111"/>
				<circle cx="252" cy="252" r="201.878"/>
				<circle cx="252" cy="252" r="202.645"/>
				<circle cx="252" cy="252" r="203.412"/>
				<circle cx="252" cy="252" r="204.179"/>
				<circle cx="252" cy="252" r="204.946"/>
				<circle cx="252" cy="252" r="205.713"/>
				<circle cx="252" cy="252" r="206.48"/>
				<circle cx="252" cy="252" r="207.247"/>
				<circle cx="252" cy="252" r="208.014"/>
				<circle cx="252" cy="252" r="208.78"/>
				<circle cx="252" cy="252" r="209.547"/>
				<circle cx="252" cy="252" r="210.314"/>
			</g>

			<g id="track-1">
				<circle cx="252" cy="252" r="240.833"/>
				<circle cx="252" cy="252" r="240.059"/>
				<circle cx="252" cy="252" r="239.285"/>
				<circle cx="252" cy="252" r="238.512"/>
				<circle cx="252" cy="252" r="237.738"/>
				<circle cx="252" cy="252" r="236.964"/>
				<circle cx="252" cy="252" r="236.19"/>
				<circle cx="252" cy="252" r="235.416"/>
				<circle cx="252" cy="252" r="234.643"/>
				<circle cx="252" cy="252" r="233.868"/>
				<circle cx="252" cy="252" r="233.095"/>
				<circle cx="252" cy="252" r="232.32"/>
				<circle cx="252" cy="252" r="231.547"/>
				<circle cx="252" cy="252" r="230.773"/>
				<circle cx="252" cy="252" r="229.999"/>
				<circle cx="252" cy="252" r="229.226"/>
				<circle cx="252" cy="252" r="228.452"/>
				<circle cx="252" cy="252" r="227.678"/>
				<circle cx="252" cy="252" r="226.904"/>
				<circle cx="252" cy="252" r="226.13"/>
				<circle cx="252" cy="252" r="225.356"/>
				<circle cx="252" cy="252" r="224.582"/>
				<circle cx="252" cy="252" r="223.809"/>
				<circle cx="252" cy="252" r="223.035"/>
				<circle cx="252" cy="252" r="222.261"/>
				<circle cx="252" cy="252" r="221.487"/>
				<circle cx="252" cy="252" r="220.713"/>
				<circle cx="252" cy="252" r="219.939"/>
				<circle cx="252" cy="252" r="219.166"/>
				<circle cx="252" cy="252" r="218.391"/>
				<circle cx="252" cy="252" r="217.618"/>
				<circle cx="252" cy="252" r="216.844"/>
				<circle cx="252" cy="252" r="216.07"/>
				<circle cx="252" cy="252" r="215.296"/>
				<circle cx="252" cy="252" r="214.522"/>
				<circle cx="252" cy="252" r="213.749"/>
				<circle cx="252" cy="252" r="212.975"/>
				<circle cx="252" cy="252" r="212.201"/>
			</g>
		</g>
	</symbol>

	<mask id="reflection-mask">
		<rect fill="#000" x="0" y="0" width="100%" height="100%" />
		<use fill="#fff" xlink:href="#reflections"></use>
		<use fill="#fff" xlink:href="#reflections"></use>
	</mask>

	<mask id="pin-hole">
		<rect fill="white" x="0" y="0" width="100%" height="100%" />
		<circle cx="252" cy="252" r="10.347"/>
	</mask>

	<path id="wax" mask="url(#pin-hole)" fill="#E81F2E" d="M252,0C112.824,0,0,112.824,0,252s112.824,252,252,252s252-112.824,252-252S391.176,0,252,0z
		 M252.001,262.347c-5.715,0-10.348-4.632-10.348-10.347c0-5.714,4.633-10.347,10.348-10.347c5.714,0,10.346,4.633,10.346,10.347
		C262.347,257.715,257.715,262.347,252.001,262.347z"/>

	<use class="grooves" xlink:href="#grooves" stroke="#B2192C"></use>
	<use class="grooves" xlink:href="#grooves" stroke="#fff" mask="url(#reflection-mask)"></use>

	<image id="label" xlink:href="./label.svg" mask="url(#pin-hole)" width="247.458" height="247.458" x="128.271" y="128.271"/>
	<circle id="label-emboss" fill="none" stroke="#E81F2E" stroke-width="0.25" cx="252" cy="252" r="35.875"/>
</svg>
