<?xml version="1.0" encoding="utf-8"?>
<!-- Generator: Adobe Illustrator 16.0.0, SVG Export Plug-In . SVG Version: 6.00 Build 0)  -->
<!DOCTYPE svg PUBLIC "-//W3C//DTD SVG 1.1//EN" "http://www.w3.org/Graphics/SVG/1.1/DTD/svg11.dtd">
<svg version="1.1" id="label" xmlns="http://www.w3.org/2000/svg" xmlns:xlink="http://www.w3.org/1999/xlink" x="0px" y="0px"
	 width="200px" height="200px" viewBox="0 0 200 200" enable-background="new 0 0 200 200" xml:space="preserve">
<g>
	<path fill="#1F4388" d="M100,198.509c-54.317,0-98.507-44.191-98.507-98.51c0-54.317,44.19-98.506,98.507-98.506
		s98.507,44.189,98.507,98.506C198.507,154.317,154.316,198.509,100,198.509z"/>
	<path fill="#FFFFFF" d="M100,2.985c53.494,0,97.014,43.521,97.014,97.014c0,53.495-43.521,97.017-97.014,97.017
		c-53.494,0-97.015-43.521-97.015-97.017C2.985,46.505,46.505,2.985,100,2.985 M100,0C44.771,0,0,44.771,0,99.999
		c0,55.229,44.771,100.002,100,100.002c55.228,0,100-44.772,100-100.002C199.999,44.771,155.228,0,100,0L100,0z"/>
</g>
<g>
	<path fill="#A8A7A6" d="M100,173.559c-40.56,0-73.557-32.999-73.557-73.56c0-40.56,32.998-73.557,73.557-73.557
		c40.56,0,73.557,32.997,73.557,73.557C173.557,140.56,140.56,173.559,100,173.559z"/>
	<path fill="#FFFFFF" d="M100,27.935c39.799,0,72.065,32.264,72.065,72.064c0,39.803-32.266,72.067-72.065,72.067
		c-39.802,0-72.065-32.265-72.065-72.067C27.935,60.199,60.198,27.935,100,27.935 M100,24.95c-41.383,0-75.05,33.667-75.05,75.049
		c0,41.384,33.667,75.053,75.05,75.053c41.382,0,75.05-33.669,75.05-75.053C175.05,58.617,141.382,24.95,100,24.95L100,24.95z"/>
</g>
<path id="head_2_" fill="#1F4388" d="M107.679,152.657c0.075-0.019,0.147-0.037,0.22-0.053c4.604-1.042,10.511-0.837,16.001-2.152
	c8.979-2.153,12.69-6.956,14.345-7.726c1.657-0.769,8.053-1.543,11.917-4.192c3.863-2.648,8.165-7.696,7.723-8.494
	c-0.407-0.746-1.227-1.128-1.708-1.271c-0.819-0.247-0.911,0.371-1.573-0.349c-0.295-0.318,1.016-2.092-0.8-3.622
	c-5.117-4.305-7.145-4.015-7.614-5.074c-0.957-2.157-1.095-3.718-3.433-9.892c-1.021-2.704,0.277-3.237-1.888-6.222
	c-1.533-2.108-3.396-0.166-4.056-1.543c0,0-0.293-0.401-0.083-1.146c0.204-0.745,4.302-0.658,5.997,1.323
	c1.244,1.448,0.703-1.363-0.206-2.606c-0.91-1.242-0.244-1.143,1.778-0.827c1.773,0.274,4.759,1.738,7.036,0.207
	c2.526-1.7,5.352-3.543,7.034-6.954c0.762-1.547,0.014-2.55-0.54-1.859c-0.826,1.033-2.232,1.263-2.232,0.413
	c0-1.893,2.027-2.275,0.955-7.979c-0.248-1.344-0.924-2.542-1.413-3.152c-0.825-1.034-1.216,0.006-1.033,1.076
	c0.33,1.944-2.232,5.834-5.873,3.311c-0.454-0.313,4.177-2.547,4.229-6.9c0.031-2.783-2.374-4.544-3.073-4.562
	c-0.696-0.019-0.39,1.411-0.478,2.175c-0.221,1.848-1.761,3.895-4.444,4.707c-0.188,0.057-0.765,0.009-0.828-0.286
	c-0.21-0.95-0.043-2.375-0.577-4.32c-0.403-1.452,1.654-8.026-1.204-12.993c-2.852-4.965-2.315-2.358-6.577-11.336
	c-4.004-8.436-16.218-13.325-19.324-13.325c-2.316,0-1.386-2.107-6.828-1.861c-12.825,0.578-14.204,2.471-15.516,2.646
	c-4.344,0.581-7.198,2.36-11.088,2.234c-3.41-0.108-6.695-0.432-9.476-0.165c-1.199,0.115-2.719,0.65-4.385,1.117
	c-1.833,0.518-3.798,0.98-4.511,1.367c-2.643,1.423-5.629,3.391-5.503,7.198c0.155,4.763,0.208,6.249-1.243,8.731
	c-0.621,1.065-0.703,1.614,0.209,2.276c1.113,0.809,1.4,1.076,3.806-1.739c2.689-3.144,2.965-4.015,4.262-5.212
	c1.407-1.298,2.775-1.658,4.759-1.615c-0.915,0.83-1.882,1.282-2.566,2.111c-1.478,1.792-2.025,2.544-2.521,4.141
	c-0.864,2.789-0.854,6.155-0.629,8.888c0.016,0.183-0.066,0.598-0.239,0.737c-0.566,0.458-1.767,1.833-1.576,5.186
	c0.124,2.192-0.842,1.354-1.655-0.084c-0.269-0.474-0.548-0.77-1.578-0.558c-0.905,0.188-1.194,1.035-0.738,2.792
	c0.227,0.88,0.501,1.604,0.826,2.152c0.973,1.643,2.618,2.137,3.391,4.345c1.45,4.137-7.198,6.952-7.322,15.724
	c-0.063,4.474-1.702,4.436-2.734,8.151c-0.288,1.037-0.452,2.896,1.906,4.966c0.998,0.874,3.626,2.608,5.504,1.653
	c2.39-1.214,3.806-3.888,5.544-3.888c0.694,0,0.572,0.481,0.924,1.571c0.411,1.272-0.036,1.685,5.082,6.312
	c0.17,0.155,0.709,0.846,0.523,1.035c-0.736,0.764-0.942,2.006-0.405,2.834c0.356,0.547,1.555,2.179,1.86,3.083
	c0.313,0.924-0.757,1.061-1.155,1.116c-0.545,0.076-1.156,0.113-1.262,0.081c-1.016-0.31-0.096,0.772,0.887,1.038
	c0.757,0.204,1.056,0.135,0.829,0.763c-0.332,0.91-1.49,0.459-1.734,0.565c-0.243,0.113,0.532,0.594-0.237,0.715
	c-0.865,0.137-1.963,0.144-3.285-0.245c-1.887-0.558-0.035,1.871,2.511,2.668c0.181,0.058,0.124,1.063-0.896,1.348
	c-2.733,0.742-5.102-0.731-5.393-0.673c-0.676,0.134-0.479,1.01,0.356,1.855c0.735,0.746,1.963,1.464,3.521,1.635
	c0.223,0.023,0.936,0.324,0.391,0.691c-1.428,0.963-6.92,1.206-6.406,8.365c0.348,4.869,2.003,8.432-3.889,8.274
	c-4.677-0.124-0.705,6,10.466,5.71c2.827-0.07,5.241-0.722,6.786-1.82c1.667-1.187,2.367-2.86,2.731-3.89
	c0.703-1.986,2.028-0.95,3.393-3.435c1.365-2.483,1.324-3.888,1.654-4.428c0.334-0.536,1.741-0.329,1.863-0.536
	c0.125-0.208-0.91,0.289-0.29,1.448c0.623,1.159-0.658,1.475-0.658,2.384c0,0.911,0.7,1.753,1.156,2.995
	c0.332,0.911-2.351,3.773-3.648,5.551c-0.428,0.585-1.099,1.734-0.697,2.266c0.33,0.442,1.5,0.362,3.227,0.045
	c2.856-0.529,11.086-2.056,16.142-2.928C102.085,154.434,107.679,152.657,107.679,152.657z"/>
<g id="face_1_">
	<path fill="#FFFFFF" d="M147.693,80.978c-1.571,1.574-3.808,1.947-6.704,2.153c-1.033,0.072-3.517,0.289-5.67-0.829
		c-2.15-1.117-2.607-0.828-4.673-2.482c-2.071-1.654-2.401,0.208-4.013-1.036c-0.884-0.676-1.157-0.891-1.78-0.91
		c-1.367-0.04-1.489-1.364-4.763-1.902c-1.385-0.228-2.949,0.248-4.258,0.248c-3.394,0-4.429-1.033-4.474-1.946
		c-0.032-0.706,1.601-0.706,2.112-0.66c0.909,0.082,1.449,0.621,3.187,0.621s2.318-0.291,3.433-0.291
		c1.12,0,1.988,0.621,3.726,1.036c1.739,0.414,1.862,1.035,2.691,0.992c0.454-0.023-0.167-0.665-1.905-1.614
		c-0.939-0.514-2.234-1.262-3.803-1.654c-2.157-0.539-2.901,0-2.778-0.976c0.052-0.42,1.39-0.619,2.813-0.476
		c0.208,0.02,0.418,0.05,0.623,0.086c0.082,0.013,0.131-0.146,0.029-0.224c-0.081-0.063-0.159-0.124-0.23-0.178
		c-0.961-0.734-1.239-0.991-1.47-1.225c-0.255-0.257-0.927-0.789-0.729-1.102c0.204-0.329,0.996,0.093,1.542,0.504
		c0.559,0.403,1.281,1.119,1.281,1.119c0.22,0.19,0.44,0.376,0.654,0.557c0.13,0.112,1.077,0.731,1.281,0.756
		c0.262,0.03-0.233-0.561-0.328-0.654c-0.804-0.813-1.071-1.123-1.305-1.405c-0.275-0.344-1.043-1.109-0.8-1.392
		c0.252-0.291,1.124,0.353,1.726,0.942c0.62,0.578,1.408,1.554,1.408,1.554c0.205,0.225,0.415,0.45,0.621,0.675
		c0.059,0.064,0.427,0.449,0.584,0.486c0.224,0.052,0.233-0.266,0.151-0.336c-1.506-1.639-1.867-2.144-2.199-2.572
		c-0.318-0.448-1.216-1.411-0.977-1.682c0.258-0.299,1.295,0.571,1.982,1.347c0.702,0.769,1.617,1.995,1.623,1.99
		c0.157,0.184,0.313,0.362,0.466,0.535c0.153,0.169,0.724,0.747,0.854,0.802c0.662,0.282-0.22-0.984-0.22-0.984l-1.165-1.42
		c-0.326-0.428-1.299-1.364-1.052-1.648c0.242-0.29,1.318,0.504,2.048,1.285c0.759,0.763,1.625,2.079,1.623,2.074
		c0.132,0.191,0.729,0.907,0.957,0.981c0.281,0.09,0.177-0.501,0.076-0.684c-1.422-2.113-1.886-2.604-2.268-3.073
		c-0.357-0.509-1.575-1.306-1.448-1.626c0.14-0.375,1.673,0.314,2.48,1.306c0.886,0.917,1.754,2.501,1.758,2.493
		c0.311,0.545,0.623,1.086,0.993,1.566c1.222,1.591,1.305,0.68,0.766-0.324c-0.072-0.135-0.151-0.257-0.22-0.374l-1.788-2.861
		c-0.266-0.471-1.058-1.571-0.765-1.807c0.297-0.238,1.195,0.73,1.804,1.599c0.627,0.852,1.343,2.244,1.338,2.244
		c0.543,0.971,1.14,1.899,1.653,2.756c0.711,1.185,0.635-0.077,0.35-0.639c-0.2-0.395-0.382-0.76-0.539-1.065
		c-0.99-1.819-1.253-2.333-1.47-2.786c-0.204-0.478-0.886-1.442-0.652-1.689c0.289-0.301,1.211,0.673,1.687,1.532
		c0.524,0.848,1.09,2.185,1.09,2.185c0.491,1.019,1.005,2.021,1.462,2.905c0.132,0.252,0.559,1.9,1.268,1.9
		c0.621,0,0.067-1.611-0.025-1.873c-0.34-0.95-0.734-1.936-1.091-2.583c-0.808-1.575-1.01-2.054-1.157-2.473
		c-0.155-0.414-0.579-1.438-0.235-1.593c0.348-0.156,0.876,0.737,1.258,1.478c0.173,0.325,0.357,0.738,0.509,1.096
		c0.049,0.111,1.279,3.176,1.567,3.176c0.539,0-1.214-2.983-1.332-3.23c-0.064-0.14-0.11-0.25-0.151-0.359
		c-0.149-0.359-0.615-1.209-0.297-1.416c0.318-0.207,0.916,0.549,1.295,1.216c0.397,0.657,0.78,1.733,0.778,1.73
		c0.359,0.812,0.697,1.621,0.926,2.366c0.439,1.43,0.937-1.467-0.223-4.118c-0.639-1.463-1.033-1.788-1.19-2.156
		c-0.171-0.363-0.664-1.236-0.346-1.438c0.32-0.205,0.926,0.548,1.34,1.198c0.425,0.646,0.893,1.707,0.887,1.71
		c0.591,1.351,0.548-0.594,0.548-0.594c-1.528-6.787-3.846-7.16-6.04-12.54c-2.191-5.379-8.896-9.932-10.51-10.427
		c-1.615-0.497-6.041-3.021-9.723-3.641c-3.683-0.621-5.669-1.697-11.257-1.49c-5.584,0.207-13.778,3.227-20.065,3.639
		c-2.564,0.167-7.242-0.455-9.228-0.536c-1.986-0.084-1.862,0.827-4.841,1.033c-2.979,0.208-5.917,2.608-6.953,3.644
		c-1.034,1.034-2.181,4.035-1.737,5.502c0.132,0.44,0.225,1.235,0.047,1.945c-0.378,1.489,0.035,2.317,1.608,0.414
		c1.09-1.319,4.138-4.428,5.502-4.925c1.368-0.496,2.981-0.952,4.305-1.158c1.325-0.208,3.434,0.414,4.674,0.414
		c1.243,0,5.893,0.722,8.816,2.896c1.942,1.448,1.737,3.931-1.78,1.117c-2.689-2.152-7.158-1.532-9.311-1.532
		c-2.152,0-3.558,1.367-5.792,3.725c-2.234,2.359-2.774,8.691-2.275,11.499c0.008,0.044,1.563-0.078,2.515,0.186
		c0.372,0.104,0.653,0.267,0.712,0.524c0.037,0.156,0.06,0.827-0.415,0.827c-3.393,0-3.634,1.039-3.725,1.159
		c-1.447,1.944,0.202,6.453-1.239,7.406c-1.158,0.769-2.229-1.3-2.648-0.042c-0.414,1.242,3.476,2.319,3.56,7.077
		c0.037,2.193-4.678,7.242-6.001,11.462c-0.796,2.534,0.208,5.047-2.275,8.232c-2.483,3.188-1.243,4.47,0.414,5.67
		c1.654,1.199,1.778,0.661,3.103,0.661s3.931-3.847,5.38-5.379c1.446-1.529,2.813-1.779,4.756-1.902
		c1.948-0.125,2.691,0.95,2.567,1.655c-0.124,0.702-1.034,0.125-1.943,0.662c-0.912,0.537,1.116,2.854-0.624,4.428
		c-1.735,1.571-0.122,2.399,0.54,3.103s2.151,1.737,2.689,2.399c0.343,0.423,1.466-0.036,2.938-1.157
		c0.837-0.64,1.868-1.816,2.729-2.36c4.264-2.689,2.699-3.227,5.876-4.469c2.649-1.034,0.663-2.151-0.413-2.273
		c-0.169-0.021-0.328-0.281-0.483-0.524c-0.18-0.278-1.007-0.223-1.213-0.719c-0.282-0.677,0.751-0.776,0.954-0.827
		c1.611-0.413,1.163,0.395,1.862,0.702c0.394,0.175,0.884,0.214,1.404,0.747c1.034,1.055,1.364,0.862,1.438,1.618
		c0.044,0.439-0.109,0.971-0.318,0.862c-0.414-0.205-0.029,0.733-0.029,1.397c0,0.661,0.276,2.924,0.55,4.135
		c0.278,1.214,0.389,3.204,0,3.477c-0.386,0.275-0.55,0.223-1.266-0.882c-0.719-1.104-0.774-4.688-0.774-5.186
		c0-0.496-0.057-0.994-1.38-0.331c-1.325,0.661-4.302,4.192-5.129,5.021c-0.827,0.825-1.654,1.488-3.586,2.04
		s-2.805,1.935-2.757,2.482c0.163,1.932,3.143,2.374,3.143,4.416c0,2.098-3.337,1.873-3.972,3.475
		c-0.636,1.603,2.979-0.443,2.592,1.655c-0.384,2.097-3.31,0.938-3.86,1.931c-0.553,0.994,1.102,1.49,0.828,2.594
		c-0.278,1.1-1.656,0.72-1.766,1.104c-0.109,0.385,0.219,1.543,0,2.372c-0.219,0.825-2.375,1.655-4.027,3.582
		c-2.649,3.091,0,7.506-2.428,11.367c-1.391,2.216-4.736,2.381-6.885,2.23c1.147,1.086,3.372,2.201,6.605,2.738
		c8.453-0.294,11.912-5.215,13.342-7.536c1.531-2.48,0.124-6.95,0.746-7.531c0.619-0.576,1.402,1.241,1.446,2.278
		c0.099,2.363-0.295,4.71-0.656,6.521c0.417-0.463,0.936-0.592,1.504-0.962c0.184-1.441,0.188-3.135,0.188-4.98
		c0-2.772-1.738-6.619-0.622-6.745c1.119-0.122,1.726,2.139,2.002,5.635c0.136,1.743,0.293,2.709,0.462,3.176
		c0.708-1.661,0.746-2.665,1.012-3.1c0.219-0.353,0.901-0.384,1.377-0.424c0.245-0.871,0.348-2.014,0.112-2.885
		c-0.413-1.531-1.447-3.299,0.125-3.352c2.36-0.084,1.749,0.491,3.518,0.703c1.035,0.124,1.82-0.374,1.737-1.531
		c-0.084-1.16-0.959-2.169-1.864-2.069c-1.863,0.206-0.827,1.242-3.93,1.365c-0.91,0.036,0.125-1.365,0.33-1.573
		c0.208-0.206,0.496-0.743,0.622-1.364c0.124-0.622,0.75-0.615,0.702-1.119c-0.08-0.91,0.995-0.122,1.325-0.62
		c0.334-0.497-0.62-0.413-0.62-1.034c0-0.619,0.62-0.537,0.62-1.032c0-0.497-0.373-1.036-0.373-1.366
		c0-0.333,0.58-1.241,0.497-1.946c-0.083-0.702,0.218-0.997-1.529-3.932c-1.161-1.943-2.064-2.353-1.779-2.976
		c0.167-0.377,0.536-0.561,1.157-0.746c0.733-0.22,1.994-0.402,2.978-0.705c1.247-0.382,2.185-0.867,2.485-0.867
		c0.536,0-0.083-2.111-0.083-2.111s-0.316-4.921-0.827-7.613c-0.28-1.478-0.209-2.401-1.035-3.973
		c-0.552-1.048-0.739-2.602-1.12-2.357c-0.191,0.126-0.527,0.057-0.744,0.206c-0.317,0.216-0.239,0.599-0.619,0.829
		c-0.391,0.23-1.507,0.526-1.946,0.743c-0.765,0.376-1.13,0.611-1.988,0.815c-0.681,0.165-5.708,0.425-7.362-0.401
		c-0.905-0.452-1.123-0.736-1.614-0.414c-0.409,0.267-0.329,1.32-1.368,1.32c-0.799,0-0.999,0.09-1.194-1.247
		c-0.041-0.277,0.079-2.184-0.251-3.922c-0.187-0.976-2.035-0.304-2.689,0.497c-1.118,1.366-0.623,1.779-1.78,1.819
		c-0.577,0.021-0.622-0.329-1.093,0.728c-0.305,0.687-0.722,0.781-1.06,0.805c-1.241,0.083,0.058-2.653,0.887-3.849
		c0.295-0.424,1.348-1.675,1.885-1.656c0.573,0.021,0.441,0.361,0.696,0.324c0.67-0.095,0.67-0.818,1.626-0.768
		c0.5,0.027,0.477,0.319,0.823,0.733c0.622,0.742,1.656-0.909,2.483,0.829c1.153,2.423,1.448,1.285,2.565,2.482
		c0.571,0.614,1.683,0.504,2.814,0.46c0.376-0.01,0.168-0.47,0.496-0.625c0.54-0.254,0.87,0.746,2.068,0.542
		c0.774-0.128,1.064-0.611-0.205-1.204c-1.944-0.911-0.496-1.696,1.157-0.621c1.655,1.077,1.863,0.704,2.069,0.373
		c0.086-0.137-0.611-0.813-1.074-1.117c-0.658-0.43-1.534-0.954-0.827-1.12c0.606-0.145,0.827,0.086,2.271,0.623
		c1.449,0.539,1.989,1.448,2.168,1.025c0.134-0.311-0.269-0.886-1.049-1.232c-0.968-0.434-1.903-0.788-1.737-1.075
		c0.29-0.496,1.251,0.024,2.134,0.355c0.53,0.201,1.041,0.438,1.383,0.642c0.91,0.545,1.199,0.989,2.773,1.403
		c0.467,0.125,1.649,0.274,1.884,0.329c0.928,0.209,0.514,0.913-0.035,0.922c-0.375,0.009-0.678-0.254-1.189-0.092
		c-0.418,0.134,0.623,1.034,1.242,1.531c0.622,0.496,0.208,2.896,0.208,4.882c0,1.987,0.703,1.944,0.827,4.139
		c0.054,0.949,0,2.565,0,2.98c0,0.411-0.083,1.364,0,2.192c0.083,0.826,1.367-0.331,1.367-0.54c0-0.207,0.992-0.743,0.992-1.652
		c0-0.709,0.373-1.781,0.289-2.402c-0.083-0.62,0.209-3.929,0-4.84c-0.204-0.911-0.21-2.054-0.289-3.157
		c-0.208-2.926-0.495-1.519-0.704-2.567c-0.142-0.717,0.496-0.979,1.84-1.722c1.425-0.787,0.645-1.742,1.969-1.742
		c0.703,0,0.872,0.83,0.413,1.367c-0.652,0.762-1.24,0.993-1.24,1.532s0.661,2.44,0.744,4.013c0.083,1.572-0.125,4.965,0.083,8.483
		c0.107,1.857,1.324,1.239,1.943,1.117c0.62-0.124,1.097-0.448,2.634-0.787c1.727-0.381,2.745-0.662,2.538-1.652
		c-0.208-0.996,0.413-1.078,0.33-2.32c-0.082-1.242,0.372-0.827,0.289-1.862c-0.082-1.034,0.21-1.241,0.21-2.896
		c0-1.656-1.449-2.896-1.577-3.531c-0.12-0.632-0.287-1.104,3.643-0.979c3.934,0.123,5.463-1.904,5.38-2.69
		c-0.082-0.786-1.365-0.537-2.605-0.746c-1.24-0.206-1.532-0.33-4.18-1.903c-1.324-0.786-1.779-1.326-2.481-1.119
		c-0.316,0.094,0.39,1.387,0.702,1.533c0.62,0.291,0.827,1.324,3.103,1.656c1.424,0.206,2.138,0.713,2.114,1.075
		c-0.044,0.787-2.525-0.292-3.771-0.292c-2.147,0-4.342-2.77-5.087-4.22c-0.744-1.446-1.53-0.703-1.943-0.081
		c-0.219,0.327-1.033,0.354-1.448,0.62c-0.368,0.235-0.126,0.744-0.497,0.911c-0.198,0.087-0.539,0.07-0.827,0.04
		c-0.414-0.04-0.289,1.443-0.836,1.497c-1.021,0.101-0.941-1.784-1.771-2.946c-1.574-2.203-3.18-3.112-1.945-3.433
		c1.119-0.291,1.532,1.035,2.701,0.875c0.622-0.081-1.396-2.001-0.373-2.133c1.324-0.165,2.782,3.283,3.464,3.326
		c1.017,0.063,0.45-1.052-0.33-2.068c-0.779-1.017-1.773-1.934-0.828-2.193c0.911-0.249,0.624,0.248,1.572,0.041
		c0.564-0.121-0.871-4.134-1.781-6.121c-0.655-1.431-2.396-3.48-2.893-4.52c-0.192-0.404,0.622-0.944,1.342-0.278
		c0.778,0.721,1.743,1.809,2.838,3.678c2.427,4.152,2.536,6.495,3.394,5.958c0.543-0.344,0.413-1.739-0.745-3.889
		c-0.935-1.736-1.986-2.897-1.27-3.103c0.746-0.217,1.083,0.51,2.015,1.737c1.324,1.737,1.197,3.641,2.481,3.515
		c0.623-0.059,0.217-2.546-2.338-6.253c-1.506-2.182-2.834-3.553-2.159-3.883c1.153-0.566,2.172,0.778,3.17,2.4
		c2.525,4.095,2.287,2.896,2.943,2.483c0.576-0.364,1.054,0.654,1.776,1.611c0.672,0.893,1.594,1.716,2.067,1.779
		c0.621,0.083,0-1.653-1.862-4.054c-1.861-2.401-4.345-5.131-3.209-5.183c0.813-0.037,1.554-0.073,4.244,3.651
		c2.689,3.724,2.192,2.813,6.537,8.069c2.557,3.09,4.92,3.264,7.531,3.227c1.833-0.026,3.859-0.147,3.804-0.828
		c-0.08-1.076-2.273,0.421-6.617-4.005c-2.24-2.279-2.046-3.004-1.326-2.946c1.532,0.125,3.104,2.899,4.566,3.698
		c0.711,0.393,1.452,0.616,3.091,0.979c2.813,0.619,7.019,0.318,9.521,0.411c3.311,0.124,4.258,0.706,6.036,0.499
		c1.778-0.207,2.857-0.704,2.857-0.704s2.396-0.124,4.757-2.689C151.085,79.448,149.266,79.407,147.693,80.978z M84.063,140.15
		c0.155,1.034,0.453,1.98-0.259,1.987c-0.619,0.003-1.171-1.379-1.366-2.732c-0.163-1.159-1.202-1.779-1.198-2.979
		c0.005-1.658,1.112-1.118,1.279-0.207C82.688,137.129,83.907,139.116,84.063,140.15z M81.679,64.013
		c0.352-0.703,2.397-0.464,3.772,0c2.365,0.802,4.934,3.518,3.816,4.015c-1.117,0.497-2.276-2.029-4.552-2.567
		C82.438,64.924,81.322,64.717,81.679,64.013z M79.873,69.146c1.658,0,3.482,0.998,6.78,3.185c1.375,0.912,1.993,2.07,1.375,2.608
		c-0.624,0.538-0.828-0.455-3.02-1.985c-2.193-1.533-3.726-2.4-4.966-2.4c-1.241,0-2.028-0.208-2.028-0.704
		C78.013,69.559,78.221,69.146,79.873,69.146z M91.746,97.205c-0.081,0.159-0.243,0.251-0.411,0.251
		c-0.073,0-0.144-0.018-0.211-0.053c-1.146-0.589-1.887-0.81-3.252-1.218c-1.479-0.439-3.176-0.869-4.532-1.613
		c-0.103-0.058-0.888-0.352-0.842-1.003c0.035-0.537,0.801-0.063,0.887-0.016c1.276,0.707,1.826,0.868,3.268,1.297
		c0.745,0.224,2.027,0.5,3.027,0.817C91.254,96.165,91.865,96.978,91.746,97.205z M91.976,95.211
		c-2.062-1.043-3.375-1.329-4.832-1.651c-0.835-0.189-2.224-0.586-3.167-1.006c-0.979-0.435-0.979-0.435-1.619-0.72
		c-0.149-0.068-0.679-0.303-0.679-0.832c0-0.507,0.773-0.147,0.852-0.109c0.905,0.47,1.631,0.758,2.267,0.96
		c0.396,0.119,0.752,0.208,1.098,0.282c0.435,0.097,0.843,0.17,1.267,0.265c0.342,0.076,0.694,0.16,1.067,0.261
		c0.258,0.069,0.526,0.146,0.802,0.235c0.408,0.132,0.833,0.286,1.277,0.465c0.533,0.221,1.094,0.482,1.686,0.797
		c0.146,0.079,0.616,0.393,0.616,0.878C92.609,95.544,92.052,95.249,91.976,95.211z M91.874,91.986c0.289,0,1.077,0.952,0.332,1.033
		c-0.746,0.084-3.155-1.513-4.178-1.653c-2.979-0.417-6.002-3.312-7.657-3.312c-1.654,0-3.144,0.125-3.475,0.207
		c-0.283,0.07-1.944,1.986-2.615,2.183c-0.145,0.04-0.428,0.136-0.539,0.088c-0.332-0.144-0.86-0.519-1.319-0.945
		c-0.482-0.454-1.012-1.168-1.03-1.533c-0.023-0.447,0.262-0.799,0.451-1.308c0.162-0.43,0.345-0.826,0.459-1.093
		c0.04-0.095,0.08-0.21,0.112-0.334c0.053-0.182-0.283-0.582-0.488-0.571c-0.179,0.012-0.358,0.023-0.535,0.036
		c-1.134,0.081-2.104,0.569-2.898,0.745c-0.791,0.178-1.281,0.537-1.985,0.33c-0.555-0.161-0.823-1.132-0.785-1.737
		c0.025-0.44,0.101-0.677,0.854-0.868c0.112-0.028,0.419-0.195,0.419-0.25c-0.002-0.26-0.041-0.544-0.093-0.812
		c-0.025-0.12-0.224-0.306-0.292-0.291c-0.399,0.072-0.72-0.005-0.846-0.152c-0.455-0.54-1.948-1.435-0.913-2.384
		c1.035-0.953,1.738-1.451,2.482-2.277c0.745-0.827,0.496-2.524,2.482-3.601c1.986-1.075,2.607-1.366,3.435-1.366
		c2.07,0,2.896,1.036,5.917,1.947c1.354,0.407,2.529,0.614,3.062,0.827c2.895,1.159,2.276,2.192-1.613,2.276
		c-2.36,0.049-5.421,0-6.125-0.083c-0.703-0.083-2.105-0.638-2.481-0.29c-1.726,1.59-2.255,2.522-2.772,2.98
		c0,0-0.184,0.599-0.146,0.746c0.173,0.673,0.44,1.324,0.695,1.854c0.03,0.066,0.581,0.342,0.767,0.325
		c0.354-0.035,0.683-0.06,0.959-0.071c0.907-0.034,2.325-0.425,3.186-0.332c1.794,0.196,2.806,0.994,3.227,0.994
		c2.153,0,1.116-1.738,4.758-1.738c0.98,0,1.542,0.366,1.986,0.58c0.516,0.245,1.184,0.69,1.243,1.158
		c0.037,0.305-0.369,0.69-0.622,0.803c-0.806,0.345-2.018,0.658-2.938,0.727c-1.657,0.125-3.312-0.077-4.552-0.077
		c0,0-0.484-0.025-1.247-0.046c-0.276-0.007-1.124,0.221-1.212,0.325c-0.12,0.141-0.23,0.262-0.314,0.337
		c-0.499,0.465-0.685,0.832-0.909,1.244c-0.249,0.452,0.703,1.57,1.117,1.239c0.813-0.652,0.963-1.338,3.245-1.447
		c4.219-0.207,5.196,2.15,6.975,2.771c1.78,0.623,3.268,1.491,3.807,1.572C89.806,90.827,91.584,91.986,91.874,91.986z
		 M91.335,74.07c-0.33,0.039-0.415,0.288-2.275-1.491c-1.861-1.779-5.182-4.099-5.921-4.221c-1.27-0.208-2.221-0.415-2.146-1.158
		c0.083-0.829,0.903-0.321,2.146-0.196c1.243,0.123,1.246,0.236,5.126,2.927C92.149,72.621,91.667,74.028,91.335,74.07z
		 M93.073,58.219c-0.868,0-1.656-1.07-2.895-2.399c-1.238-1.329-2.924-2.918-4.603-4.096c-0.802-0.562-2.673-1.652-3.741-1.893
		c-1.338-0.301-1.669-0.725-1.669-1.128c0-0.414,3.029-0.56,7.748,2.528c0.591,0.383,1.13,0.752,1.621,1.1
		C96.021,56.928,94.151,58.219,93.073,58.219z M131.882,55.245c0.002-0.001,0.004-0.002,0.006-0.003
		c0.415-0.285,0.855,0.076,1.158,0.399c0.314,0.314,0.678,0.896,0.678,0.896c0.443,0.488,0.943,0.978,1.324,1.432
		c0.383,0.462,0.623,0.889,0.658,1.118c0.063,0.402,0.297,0.841-0.149,1.133c0.004,0.01,0.008,0.018,0.012,0.028l-0.02-0.024
		c-0.049,0.031-0.099,0.063-0.167,0.091c-0.35,0.141-0.592-0.294-0.639-0.404c-0.023-0.057-0.212-0.516-0.572-1.018
		c-0.346-0.505-0.864-1.057-1.239-1.396c-0.749-0.672-0.896-0.963-1.018-1.182C131.804,56.077,131.468,55.534,131.882,55.245z
		 M128.982,53.958c0.002,0,0.004,0,0.006,0v0h0.002c0.239-0.068,0.466,0.04,0.652,0.198c0.096,0.081,0.173,0.177,0.255,0.282
		c0.103,0.102,0.196,0.213,0.281,0.32c0.163,0.214,0.35,0.502,0.524,0.736c0.161,0.239,0.277,0.417,0.277,0.417
		c1.106,1.258,2.45,2.518,2.568,3.154c0.041,0.139,0.102,0.275,0.155,0.412c0.043,0.152,0.072,0.312,0.082,0.453
		c0.01,0.229-0.053,0.414-0.255,0.529c0.002,0.013,0.006,0.025,0.01,0.038l-0.022-0.034c-0.051,0.027-0.1,0.054-0.167,0.072
		c-0.375,0.083-0.618-0.411-0.67-0.54c-0.061-0.061-0.311-0.628-0.845-1.271c-0.503-0.644-1.173-1.377-1.637-1.83
		c-0.932-0.916-1.101-1.322-1.246-1.624C128.783,54.987,128.501,54.071,128.982,53.958z M125.719,53.423
		c0.002-0.001,0.002-0.001,0.004-0.002c0.428-0.279,0.923,0.199,1.309,0.606c0.375,0.408,0.847,1.123,0.847,1.123
		c1.083,1.239,2.316,2.48,2.452,3.036c0.157,0.443,0.487,0.968,0.088,1.328c0.007,0.01,0.013,0.022,0.019,0.032l-0.022-0.029
		c-0.043,0.04-0.09,0.079-0.152,0.114c-0.333,0.181-0.683-0.335-0.755-0.466c-0.053-0.061-0.363-0.624-0.864-1.254
		c-0.479-0.635-1.108-1.351-1.549-1.782c-0.89-0.865-1.07-1.203-1.228-1.468C125.715,54.382,125.3,53.703,125.719,53.423z
		 M121.785,51.686c0.002-0.001,0.004-0.001,0.006-0.002c0.422-0.281,1.018,0.309,1.453,0.807c0.227,0.246,0.478,0.578,0.671,0.85
		c0.196,0.272,0.348,0.475,0.348,0.475c1.287,1.458,2.798,2.839,3.033,3.45c0.238,0.491,0.668,1.092,0.305,1.498
		c0.006,0.012,0.018,0.025,0.023,0.038l-0.029-0.034c-0.041,0.043-0.082,0.087-0.142,0.127c-0.326,0.201-0.752-0.394-0.87-0.539
		c-0.057-0.074-0.501-0.709-1.136-1.437c-0.635-0.729-1.405-1.563-1.932-2.086c-1.061-1.038-1.271-1.441-1.464-1.75
		C121.871,52.751,121.37,51.971,121.785,51.686z M117.833,51.479c0.002-0.001,0.004-0.001,0.006-0.002
		c0.411-0.271,1.048,0.269,1.637,0.744c0.564,0.474,1.345,1.3,1.345,1.3c1.668,1.422,3.429,2.897,3.735,3.566
		c0.159,0.32,0.395,0.648,0.491,0.984c0.08,0.269,0.049,0.519-0.136,0.683c0.006,0.014,0.016,0.03,0.021,0.046l-0.035-0.037
		c-0.042,0.037-0.087,0.075-0.147,0.1c-0.175,0.074-0.355-0.053-0.487-0.201c-0.177-0.154-0.301-0.352-0.374-0.429
		c-0.053-0.078-0.552-0.763-1.314-1.511c-0.748-0.751-1.691-1.579-2.34-2.076c-1.293-0.989-1.611-1.371-1.876-1.688
		C118.093,52.663,117.403,51.779,117.833,51.479z M114.216,50.94c0-0.001,0.002-0.001,0.004-0.002c0.35-0.361,1.128,0.169,1.7,0.65
		c0.579,0.477,1.322,1.315,1.322,1.315c1.609,1.457,3.336,2.893,3.662,3.506c0.285,0.555,0.827,1.107,0.522,1.562
		c0.012,0.013,0.023,0.027,0.03,0.039l-0.034-0.035c-0.033,0.05-0.07,0.099-0.127,0.147c-0.291,0.239-0.877-0.375-1.007-0.53
		c-0.021-0.199-2.395-2.576-3.66-3.578c-1.25-1.008-1.557-1.373-1.813-1.676C114.56,52.028,113.868,51.309,114.216,50.94z
		 M110.709,50.941c0.002-0.002,0.004-0.002,0.004-0.003c0.265-0.428,1.167,0.034,1.854,0.47c0.344,0.22,0.761,0.511,1.06,0.779
		c0.288,0.282,0.503,0.492,0.503,0.492c1.821,1.465,3.588,3.034,3.949,3.657c0.313,0.563,0.894,1.117,0.615,1.6
		c0.01,0.012,0.025,0.028,0.035,0.04l-0.041-0.034c-0.028,0.052-0.062,0.103-0.114,0.154c-0.273,0.26-0.924-0.389-1.067-0.552
		c-0.094-0.187-2.517-2.769-3.916-3.708c-0.664-0.508-1.094-0.831-1.406-1.038c-0.305-0.221-0.47-0.369-0.623-0.507
		C111.257,52.014,110.449,51.375,110.709,50.941z M108.092,52.059c0-0.002,0.002-0.002,0.004-0.003
		c0.284-0.417,1.138-0.018,1.78,0.364c0.654,0.374,1.517,1.101,1.517,1.101c1.81,1.218,3.698,2.413,4.095,2.981
		c0.363,0.491,0.979,0.93,0.763,1.441c0.012,0.011,0.027,0.022,0.039,0.033l-0.041-0.028c-0.024,0.056-0.05,0.112-0.097,0.169
		c-0.235,0.296-0.93-0.227-1.089-0.361c-0.109-0.165-2.703-2.264-4.116-3.048c-1.371-0.818-1.739-1.105-2.039-1.369
		C108.608,53.077,107.816,52.481,108.092,52.059z M105.609,52.513c0-0.001,0.002-0.001,0.004-0.002
		c0.354-0.355,1.116,0.117,1.669,0.549c0.286,0.211,0.593,0.524,0.86,0.755c0.268,0.234,0.468,0.409,0.468,0.409
		c1.641,1.257,3.526,2.262,3.932,2.794c0.375,0.443,0.996,0.811,0.825,1.342c-0.02,0.059-0.043,0.119-0.083,0.182
		c-0.204,0.319-0.923-0.136-1.088-0.255c-0.089-0.057-0.743-0.584-1.598-1.18c-0.853-0.586-1.837-1.29-2.497-1.727
		c-1.343-0.823-1.611-1.251-1.887-1.52C105.954,53.562,105.254,52.875,105.609,52.513z M107.541,59.383
		c-0.161,0.343-0.909,0.012-1.084-0.079c-0.081-0.055-0.81-0.428-1.739-0.803c-0.92-0.368-2.06-0.772-2.804-1.037
		c-0.743-0.282-1.211-0.501-1.518-0.707c-0.311-0.192-0.487-0.317-0.637-0.446c-0.291-0.275-1.05-0.899-0.73-1.291
		c0.326-0.4,1.085,0.012,1.673,0.341c0.305,0.146,0.648,0.389,0.941,0.557c0.293,0.172,0.517,0.299,0.517,0.299
		c0.898,0.418,1.885,0.708,2.706,1c0.819,0.276,1.458,0.581,1.713,0.773C107.079,58.402,107.855,58.707,107.541,59.383z
		 M110.677,58.776c-0.018,0.06-0.035,0.121-0.072,0.187c-0.183,0.332-0.851-0.016-1.006-0.11c-0.081-0.041-0.693-0.475-1.489-0.93
		c-0.792-0.447-1.724-0.981-2.354-1.304c-1.269-0.611-1.532-0.962-1.798-1.177c-0.253-0.242-0.931-0.784-0.625-1.188
		c0.002-0.001,0.002-0.002,0.004-0.004c0.309-0.396,1.036-0.062,1.57,0.265c0.27,0.162,0.582,0.399,0.825,0.596
		c0.254,0.186,0.446,0.325,0.446,0.325c1.55,0.949,3.332,1.687,3.708,2.151C110.243,57.968,110.824,58.246,110.677,58.776
		c0.011,0.008,0.022,0.016,0.036,0.024L110.677,58.776z"/>
	<path fill="#FFFFFF" d="M108.011,85.573c3.396,2.879,4.323,3.13,4.759,2.813c0.454-0.331-1.144-1.133-3.354-3.227
		c-2.316-2.195-3.062-3.601-3.972-3.601C104.869,81.559,105.814,83.71,108.011,85.573z"/>
	<path fill="#FFFFFF" d="M84.193,155.917c1.142,0.778,3.032-1.934,5.074-4.69c2.043-2.758,15.833-18.481,17.211-19.862
		c1.381-1.378,2.099-2.318,1.548-2.593c-0.556-0.274-5.132,4.418-11.311,11.588C90.536,147.53,82.979,155.091,84.193,155.917z"/>
	<path fill="#FFFFFF" d="M108.213,128.76c1.584,1.196,8.752-8.426,16.362-13.392c7.613-4.968,9.38-6.017,10.48-6.236
		c1.106-0.22,2.65-0.5,3.201-0.939c0.554-0.439-1.268-4.797-2.48-4.41c-1.214,0.384-13.962,5.13-16.552,5.792
		c-2.594,0.661-4.848,1.267-8.003,1.764c-3.859,0.607-8.927,3.527-11.14,3.64c-4.305,0.225-7.228,2.1-8.442,2.21
		c-1.215,0.108-3.747,1.186-4.523,1.491c-0.994,0.384-0.185,1.195,0.497,2.205c0.871,1.299,2.083,2.869,3.2,5.351
		c2.481,5.519,1.93,6.897,3.584,6.897c0.83,0,6.816-3.418,8.014-3.697c1.198-0.277,6.496-4.306,7.435-4.691
		c0.301-0.123,0.728-0.212,1.104-0.23c0.596-0.033,1.075,0.111,0.786,0.568C111.634,125.24,107.685,128.362,108.213,128.76z"/>
	<path fill="#FFFFFF" d="M89.875,128.222c0.66-0.167,1.157,1.762,1.324,2.315c0.163,0.554-0.167,1.933-1.324,1.933
		c-1.161,0,0-1.389,0-2.13c0-0.738-0.829-1.975-0.167-2.13"/>
	<path fill="#FFFFFF" d="M107.258,149.569c-0.298-0.202-0.729-0.466-0.797-1.074c-0.028-0.61,0.352-0.988,0.63-1.233
		c1.225-0.945,2.566-1.18,3.889-1.438c2.564-0.414,5.195-0.465,7.742,0.165c0.084,0.021,1.538-2.569,4.664-5.79
		c1.824-1.779,3.683-3.522,5.675-5.104c2.012-1.56,3.991-3.13,6.215-4.463c1.999-1.219,3.386-1.856,5.593-2.605
		c0.251-0.087,1.532-0.398,1.567-0.336c0.029,0.058,0.008,0.131-0.047,0.172c-2.091,1.466-4.429,2.33-6.486,3.681
		c-2.067,1.368-4.189,2.821-6.097,4.454c-1.9,1.653-3.811,3.289-5.601,5.043c-2.581,1.964-4.703,5.757-5.062,5.897
		c-0.359,0.138-1.049-0.164-1.375-0.227c-2.144-0.413-4.433-0.358-6.612,0.022c-1.228,0.274-2.542,0.635-3.438,1.284
		c-0.474,0.243-0.239,1.037,0.46,1.185C109.211,149.419,108.671,150.246,107.258,149.569z"/>
	<path fill="#FFFFFF" d="M128.381,145.951c3.12-2.338,3.588-1.994,3.297-2.408c-0.287-0.413-2.771,0.621-3.806,1.447
		c-1.035,0.828-3.227,3.063-2.815,3.394C125.473,148.714,126.548,147.325,128.381,145.951z"/>
	<path fill="#FFFFFF" d="M139.335,140.938c-0.886-0.132,1.984-3.27,2.895-4.097c0.911-0.828,3.643-1.988,3.932-1.573
		c0.291,0.412-2.704,1.727-3.227,2.192C141.486,138.755,139.541,140.967,139.335,140.938z"/>
	<path fill="#FFFFFF" d="M113.224,105.841c0.208-1.675,1.32-3.665,4.801-4.957c1.023-0.381,2.88-1.052,3.187-0.705
		c0.619,0.705-1.297,1.108-2.856,1.737c-1.013,0.409-1.985,0.952-1.78,1.366c0.208,0.413,0.791-0.331,2.605-0.952
		c1.823-0.62,4.556-1.406,5.05-0.826c0.562,0.65-2.563,1.117-4.426,1.86c-1.862,0.745-3.229,1.365-3.021,1.985
		c0.102,0.299,0.812-0.06,1.654-0.412c0.92-0.385,2.106-0.556,2.277-0.082c0.163,0.447-1.112,0.765-2.052,1.159
		c-0.973,0.411-1.88,0.453-1.674,1.073c0.2,0.601,0.478,0.212,1.798-0.247c2.173-0.759,5.679-2.129,5.859-1.406
		c0.287,1.159-4.303,1.98-5.335,2.394c-0.695,0.277-3.233,1.355-4.179,1.324C113.762,109.109,113.068,107.111,113.224,105.841z"/>
	<path fill="#FFFFFF" d="M134.452,97.902c-3.817-0.117-5.898,1.317-5.906,2.097c-0.002,0.58,2.372-0.85,4.969-0.881
		c8.22-0.097,9.705,2.876,9.196,1.459C142.154,99.021,137.154,97.986,134.452,97.902z"/>
	<path fill="#FFFFFF" d="M149.681,96.993c0.907,0.065,2.591-1.436,2.591-0.939c0,0.496-1.212,1.654-2.591,1.654
		c-1.38,0-4.102-0.978-3.92-1.817C145.955,95.006,147.943,96.868,149.681,96.993z"/>
	<path fill="#FFFFFF" d="M146.92,86.896c1.766,0.276,3.973-0.163,3.973,0.276c0,0.441-1.765,0.994-3.696,0.716
		c-1.93-0.275-4.248-0.825-4.136-1.378C143.167,85.957,146.92,86.896,146.92,86.896z"/>
</g>
<g>
	<path fill="#A8A7A6" d="M189.934,113.965c0.795,1.155,0.922,2.809,0.479,5.102l-0.77,3.966l-2.154-0.418l0.813-4.189
		c0.43-2.225-0.256-3.396-2.387-3.844l-1.443,7.448l-2.139-0.414l1.443-7.449l-5.068-0.982l0.504-2.604l5.689,1.104
		C187.367,112.161,189.014,112.623,189.934,113.965z"/>
	<path fill="#A8A7A6" d="M185.957,133.903c-1.059,2.791-2.629,3.716-5.109,2.776c-1.822-0.691-2.664-1.987-2.412-3.639l-6.041,1.071
		l1.059-2.791l5.613-0.839l1.109-2.922l-4.631-1.756l0.939-2.479l11.789,4.47L185.957,133.903z M185.232,129.478l-2.973-1.127
		l-1.15,3.038c-0.561,1.478-0.539,2.312,0.658,2.766c1.215,0.461,1.752-0.162,2.313-1.64L185.232,129.478z"/>
	<path fill="#A8A7A6" d="M178.664,148.449l-13.578-1.852l1.512-2.532l3.172,0.544l2.809-4.703l-2.002-2.504l1.441-2.412
		l8.088,11.047L178.664,148.449z M174.066,141.797l-1.926,3.227l5.143,0.842L174.066,141.797z"/>
	<path fill="#A8A7A6" d="M171.197,158.891l-10.23-2.046l6.924,5.852l-1.775,2.042l-9.52-8.271l2.016-2.32l10.76,2.158l-7.279-6.163
		l1.785-2.055l9.52,8.271L171.197,158.891z"/>
	<path fill="#A8A7A6" d="M159.881,170.355l-3.832-4.696l-0.02,7.84l-2.463,2.011l0.021-7.978l-8.039-1.763l2.627-2.144l7.695,1.815
		l-3.965-4.859l2.055-1.677l7.977,9.772L159.881,170.355z"/>
	<path fill="#A8A7A6" d="M148.768,175.843l0.828-0.531l1.186,1.847l-1.771,1.139l-0.873-1.358c-0.514-0.798-0.594-1.54-0.26-2.483
		L148.768,175.843z"/>
	<path fill="#A8A7A6" d="M140.227,180.66c1.25-0.603,1.621-1.328,1.117-2.372c-0.396-0.823-1.102-0.99-2.098-0.51l-3.164,1.526
		c-2.533,1.221-4.029,0.908-5.174-1.466c-1.15-2.389-0.357-4.02,2.332-5.316l6.361-3.067l0.977,2.025l-5.982,2.884
		c-1.266,0.61-1.705,1.193-1.232,2.175c0.488,1.013,1.172,1.054,2.326,0.497l2.816-1.358c2.596-1.251,4.256-0.842,5.354,1.437
		c1.189,2.468,0.396,4.099-2.309,5.403l-6.25,3.014l-0.977-2.025L140.227,180.66z"/>
	<path fill="#A8A7A6" d="M114.896,191.153c-4.004,0.663-6.197-1.075-6.926-5.479c-0.373-2.253-0.02-3.986,1.094-5.221
		c1.053-1.172,2.193-1.485,3.703-1.734l5.771-0.956l2.061,12.446L114.896,191.153z M117.623,188.477l-1.344-8.112l-3.033,0.502
		c-2.322,0.384-2.887,1.493-2.379,4.561c0.506,3.051,1.398,3.936,3.723,3.552L117.623,188.477z"/>
	<path fill="#A8A7A6" d="M97.532,192.308l-5.166-12.698l2.951,0.048l1.109,3.022l5.48,0.091l1.174-2.984l2.811,0.046l-5.548,12.522
		L97.532,192.308z M101.008,185.004l-3.758-0.062l1.834,4.879L101.008,185.004z"/>
	<path fill="#A8A7A6" d="M88.374,191.659l-2.303-5.244l-3.885,4.247l-3.034-0.489l5.921-6.177l0.885-5.495l2.618,0.422l-0.885,5.495
		l3.629,7.716L88.374,191.659z"/>
	<path fill="#A8A7A6" d="M61.336,184.124c-3.891-1.794-4.833-4.53-2.965-8.58c1.868-4.051,4.568-5.126,8.459-3.331
		c3.938,1.816,4.826,4.547,2.906,8.708C67.919,184.859,65.179,185.896,61.336,184.124z M67.113,179.691
		c1.287-2.79,0.958-4.509-1.195-5.501c-2.121-0.979-3.689-0.136-4.932,2.56c-1.243,2.694-0.866,4.435,1.255,5.413
		C64.313,183.119,65.914,182.291,67.113,179.691z"/>
	<path fill="#A8A7A6" d="M51.275,176.799c-1.378,0.265-2.942-0.282-4.864-1.609l-3.323-2.295l1.247-1.807l3.512,2.425
		c1.864,1.287,3.211,1.129,4.477-0.643l-6.242-4.312l1.237-1.791l6.243,4.311l2.934-4.248l2.182,1.507l-3.293,4.769
		C53.957,175.172,52.874,176.493,51.275,176.799z"/>
	<path fill="#A8A7A6" d="M28.679,158.605c-2.587-3.126-2.188-5.896,1.25-8.741c1.759-1.456,3.435-2.021,5.062-1.681
		c1.542,0.32,2.387,1.148,3.361,2.326l3.73,4.507l-9.718,8.042L28.679,158.605z M32.365,159.615l6.334-5.242l-1.96-2.368
		c-1.5-1.813-2.743-1.744-5.138,0.238c-2.382,1.972-2.697,3.189-1.196,5.003L32.365,159.615z"/>
	<path fill="#A8A7A6" d="M18.942,144.212l8.331-10.891l1.454,2.569l-2.043,2.488l2.699,4.771l3.168-0.501l1.384,2.446l-13.608,1.563
		L18.942,144.212z M27.001,143.508l-1.852-3.272l-3.277,4.055L27.001,143.508z"/>
	<path fill="#A8A7A6" d="M14.895,135.926l3.384-4.622l-5.623-1.233l-1.098-2.871l8.315,2.029l5.2-1.988l0.947,2.477l-5.2,1.988
		l-4.859,7.01L14.895,135.926z"/>
	<path fill="#A8A7A6" d="M11.973,119.112c0.275,1.36,0.885,1.899,2.021,1.67c0.895-0.181,1.231-0.822,1.012-1.906l-0.696-3.442
		c-0.557-2.754,0.115-4.126,2.697-4.648c2.599-0.525,3.982,0.646,4.574,3.572l1.398,6.92l-2.203,0.445l-1.315-6.507
		c-0.278-1.377-0.734-1.947-1.801-1.731c-1.102,0.223-1.311,0.874-1.056,2.13l0.619,3.064c0.57,2.822-0.236,4.329-2.714,4.83
		c-2.685,0.543-4.068-0.629-4.663-3.572l-1.375-6.799l2.203-0.445L11.973,119.112z"/>
	<path fill="#A8A7A6" d="M10.099,86.06c-0.797-1.155-0.925-2.808-0.483-5.101l0.765-3.966l2.155,0.416l-0.808,4.19
		c-0.429,2.225,0.257,3.394,2.389,3.841l1.437-7.449l2.138,0.412l-1.437,7.449l5.069,0.978l-0.502,2.604l-5.69-1.098
		C12.667,87.86,11.021,87.4,10.099,86.06z"/>
	<path fill="#A8A7A6" d="M14.08,66.097c1.058-2.791,2.63-3.716,5.109-2.776c1.822,0.691,2.665,1.987,2.414,3.638l6.04-1.071
		l-1.058,2.791l-5.614,0.839l-1.108,2.922l4.63,1.755l-0.94,2.479l-11.788-4.47L14.08,66.097z M14.805,70.522l2.972,1.127
		l1.152-3.038c0.56-1.478,0.539-2.312-0.66-2.767c-1.215-0.461-1.751,0.162-2.312,1.64L14.805,70.522z"/>
	<path fill="#A8A7A6" d="M21.373,51.552l13.579,1.851l-1.512,2.533l-3.172-0.544l-2.809,4.704l2.001,2.504l-1.44,2.412
		l-8.087-11.047L21.373,51.552z M25.97,58.203l1.927-3.226l-5.142-0.841L25.97,58.203z"/>
	<path fill="#A8A7A6" d="M28.833,41.121l10.229,2.046l-6.922-5.852l1.774-2.042l9.521,8.272l-2.016,2.32l-10.76-2.158l7.281,6.163
		l-1.786,2.055l-9.521-8.271L28.833,41.121z"/>
	<path fill="#A8A7A6" d="M40.157,29.645l3.833,4.696l0.02-7.839l2.463-2.011l-0.021,7.977l8.037,1.763l-2.627,2.144l-7.695-1.815
		l3.966,4.859l-2.055,1.677l-7.976-9.772L40.157,29.645z"/>
	<path fill="#A8A7A6" d="M51.269,24.158l-0.827,0.532l-1.186-1.847l1.772-1.139l0.873,1.359c0.513,0.797,0.592,1.539,0.26,2.483
		L51.269,24.158z"/>
	<path fill="#A8A7A6" d="M59.811,19.34c-1.25,0.603-1.622,1.328-1.118,2.372c0.396,0.823,1.102,0.99,2.098,0.51l3.165-1.526
		c2.532-1.221,4.028-0.909,5.172,1.465c1.152,2.389,0.358,4.02-2.332,5.317l-6.361,3.067l-0.977-2.025l5.981-2.884
		c1.266-0.61,1.707-1.193,1.233-2.174c-0.488-1.013-1.171-1.054-2.326-0.497l-2.817,1.358c-2.595,1.251-4.254,0.842-5.353-1.437
		c-1.19-2.468-0.397-4.099,2.309-5.403l6.25-3.014l0.977,2.025L59.811,19.34z"/>
	<path fill="#A8A7A6" d="M85.14,8.846c4.004-0.663,6.197,1.076,6.926,5.479c0.373,2.253,0.019,3.986-1.095,5.221
		c-1.053,1.172-2.194,1.485-3.702,1.735l-5.772,0.955L79.438,9.79L85.14,8.846z M82.414,11.524l1.342,8.112l3.034-0.502
		c2.323-0.384,2.887-1.493,2.379-4.561c-0.505-3.051-1.399-3.936-3.722-3.552L82.414,11.524z"/>
	<path fill="#A8A7A6" d="M102.504,7.693l5.166,12.699l-2.951-0.049l-1.109-3.022l-5.48-0.09l-1.173,2.985l-2.81-0.046l5.547-12.522
		L102.504,7.693z M99.027,14.996l3.758,0.062l-1.834-4.879L99.027,14.996z"/>
	<path fill="#A8A7A6" d="M111.664,8.341l2.303,5.244l3.885-4.247l3.033,0.489l-5.922,6.177l-0.885,5.495l-2.617-0.422l0.885-5.495
		l-3.629-7.716L111.664,8.341z"/>
	<path fill="#A8A7A6" d="M138.701,15.876c3.891,1.794,4.832,4.53,2.965,8.581c-1.869,4.05-4.568,5.125-8.459,3.331
		c-3.939-1.816-4.826-4.546-2.906-8.708C132.117,15.141,134.857,14.104,138.701,15.876z M132.924,20.309
		c-1.287,2.79-0.959,4.508,1.195,5.501c2.119,0.978,3.688,0.135,4.932-2.56c1.242-2.695,0.865-4.435-1.256-5.414
		C135.723,16.881,134.123,17.71,132.924,20.309z"/>
	<path fill="#A8A7A6" d="M148.762,23.201c1.377-0.265,2.941,0.282,4.863,1.609l3.324,2.295l-1.248,1.806l-3.51-2.425
		c-1.865-1.288-3.213-1.129-4.479,0.643l6.242,4.311l-1.236,1.792l-6.242-4.311l-2.936,4.248l-2.182-1.507l3.293-4.769
		C146.08,24.828,147.164,23.506,148.762,23.201z"/>
	<path fill="#A8A7A6" d="M171.359,41.394c2.586,3.126,2.188,5.896-1.25,8.741c-1.76,1.456-3.436,2.021-5.063,1.681
		c-1.541-0.32-2.387-1.148-3.361-2.326l-3.729-4.507l9.717-8.042L171.359,41.394z M167.674,40.384l-6.334,5.242l1.959,2.368
		c1.502,1.814,2.742,1.744,5.139-0.239c2.383-1.971,2.697-3.189,1.195-5.002L167.674,40.384z"/>
	<path fill="#A8A7A6" d="M181.096,55.788l-8.33,10.891l-1.453-2.568l2.043-2.489l-2.699-4.77l-3.168,0.5l-1.385-2.446l13.607-1.564
		L181.096,55.788z M173.037,56.493l1.852,3.272l3.277-4.055L173.037,56.493z"/>
	<path fill="#A8A7A6" d="M185.143,64.073l-3.385,4.622l5.623,1.234l1.098,2.871l-8.314-2.029l-5.199,1.988l-0.947-2.477l5.199-1.988
		l4.859-7.009L185.143,64.073z"/>
	<path fill="#A8A7A6" d="M188.064,80.887c-0.275-1.359-0.887-1.899-2.021-1.669c-0.895,0.181-1.232,0.822-1.012,1.907l0.695,3.442
		c0.557,2.754-0.115,4.125-2.697,4.647c-2.6,0.525-3.982-0.646-4.574-3.572l-1.398-6.919l2.203-0.445l1.314,6.506
		c0.279,1.377,0.734,1.948,1.803,1.732c1.102-0.223,1.309-0.874,1.055-2.13l-0.619-3.063c-0.57-2.823,0.236-4.33,2.715-4.831
		c2.686-0.542,4.068,0.629,4.664,3.572l1.373,6.798l-2.203,0.445L188.064,80.887z"/>
	<g>
		<path fill="#A8A7A6" d="M11.211,99.947c0.023-1.388,1.166-2.511,2.571-2.487c1.388,0.023,2.528,1.184,2.505,2.588
			c-0.023,1.405-1.184,2.511-2.588,2.487C12.293,102.512,11.188,101.352,11.211,99.947z"/>
	</g>
	<g>
		<path fill="#A8A7A6" d="M188.787,100.051c-0.023,1.387-1.166,2.51-2.57,2.488c-1.389-0.023-2.529-1.184-2.506-2.589
			s1.184-2.51,2.59-2.487C187.705,97.486,188.811,98.646,188.787,100.051z"/>
	</g>
</g>
</svg>
