<svg id="glare" xmlns="http://www.w3.org/2000/svg" xmlns:xlink="http://www.w3.org/1999/xlink" width="578px" height="578px" viewBox="0 0 578 578">
	<style>
		.light { display: none }
		.grooves { stroke: #fff; opacity: 0.2 }
		.grooves path:nth-child(24) { display: none }
		#glare:target .light { display: initial; fill: #fff; opacity: 0.05  }
		#glare:target .grooves { opacity: 0.35 }
	</style>
	<circle class="light" r="289" cx="289" cy="289" />
	<g class="grooves" fill="none">
		<path stroke-width="0.4" d="M568.583,289 c0,154.426-125.157,279.583-279.583,279.583S9.417,443.426,9.417,289S134.574,9.417,289,9.417S568.583,134.574,568.583,289z"/>
		<path stroke-width="0.4" d="M11.543,289 C11.543,135.749,135.749,11.543,289,11.543c153.252,0,277.457,124.205,277.457,277.457S442.252,566.457,289,566.457 C135.749,566.457,11.543,442.252,11.543,289z"/>
		<path stroke-width="0.4" d="M13.669,289 C13.669,136.923,136.923,13.669,289,13.669S564.33,136.923,564.33,289S441.077,564.33,289,564.33S13.669,441.077,13.669,289z"/>
		<path stroke-width="0.4" d="M15.795,289 C15.795,138.097,138.097,15.795,289,15.795c150.902,0,273.204,122.302,273.204,273.205c0,150.902-122.302,273.204-273.204,273.204 C138.097,562.204,15.795,439.902,15.795,289z"/>
		<path stroke-width="0.4" d="M17.921,289 c0-149.729,121.35-271.079,271.079-271.079c149.729,0,271.078,121.35,271.078,271.079c0,149.729-121.35,271.078-271.078,271.078 C139.271,560.078,17.921,438.729,17.921,289z"/>
		<path stroke-width="0.4" d="M20.048,289 C20.048,140.446,140.446,20.048,289,20.048c148.554,0,268.952,120.398,268.952,268.952c0,148.554-120.398,268.952-268.952,268.952 C140.446,557.952,20.048,437.554,20.048,289z"/>
		<path stroke-width="0.4" d="M22.174,289 C22.174,141.621,141.621,22.174,289,22.174c147.38,0,266.826,119.446,266.826,266.826S436.38,555.826,289,555.826 C141.621,555.826,22.174,436.38,22.174,289z"/>
		<path stroke-width="0.4" d="M24.3,289C24.3,142.795,142.795,24.3,289,24.3 S553.7,142.795,553.7,289S435.206,553.7,289,553.7S24.3,435.206,24.3,289z"/>
		<path stroke-width="0.4" d="M26.426,289 C26.426,143.969,143.969,26.426,289,26.426S551.574,143.969,551.574,289S434.031,551.574,289,551.574S26.426,434.031,26.426,289z" />
		<path stroke-width="0.4" d="M28.552,289 C28.552,145.144,145.144,28.552,289,28.552c143.856,0,260.447,116.592,260.447,260.448c0,143.856-116.591,260.447-260.447,260.447 C145.144,549.447,28.552,432.856,28.552,289z"/>
		<path stroke-width="0.4" d="M30.679,289 C30.679,146.318,146.318,30.679,289,30.679c142.683,0,258.322,115.639,258.322,258.321c0,142.683-115.641,258.322-258.322,258.322 C146.318,547.322,30.679,431.683,30.679,289z"/>
		<path stroke-width="0.4" d="M32.805,289 C32.805,147.492,147.492,32.805,289,32.805S545.195,147.492,545.195,289S430.508,545.195,289,545.195S32.805,430.508,32.805,289z" />
		<path stroke-width="0.4" d="M34.931,289 C34.931,148.667,148.667,34.931,289,34.931c140.334,0,254.069,113.736,254.069,254.069c0,140.334-113.735,254.069-254.069,254.069 C148.667,543.069,34.931,429.334,34.931,289z"/>
		<path stroke-width="0.4" d="M37.057,289 C37.057,149.841,149.841,37.057,289,37.057S540.943,149.841,540.943,289S428.159,540.943,289,540.943S37.057,428.159,37.057,289z" />
		<path stroke-width="0.4" d="M39.183,289 C39.183,151.015,151.015,39.183,289,39.183c137.984,0,249.816,111.832,249.816,249.817c0,137.984-111.832,249.816-249.816,249.816 C151.015,538.816,39.183,426.984,39.183,289z"/>
		<path stroke-width="0.4" d="M41.31,289C41.31,152.19,152.19,41.31,289,41.31 c136.811,0,247.691,110.88,247.691,247.69c0,136.811-110.882,247.691-247.691,247.691C152.19,536.691,41.31,425.811,41.31,289z"/>
		<path stroke-width="0.4" d="M43.436,289 C43.436,153.364,153.364,43.436,289,43.436c135.637,0,245.564,109.928,245.564,245.564c0,135.637-109.929,245.564-245.564,245.564 C153.364,534.564,43.436,424.637,43.436,289z"/>
		<path stroke-width="0.4" d="M45.562,289 C45.562,154.538,154.538,45.562,289,45.562S532.438,154.538,532.438,289S423.462,532.438,289,532.438S45.562,423.462,45.562,289z" />
		<path stroke-width="0.4" d="M47.688,289 C47.688,155.713,155.713,47.688,289,47.688S530.313,155.713,530.313,289S422.287,530.313,289,530.313S47.688,422.287,47.688,289z" />
		<path stroke-width="0.4" d="M49.813,289 C49.813,156.887,156.887,49.813,289,49.813c132.113,0,239.186,107.074,239.186,239.187S421.114,528.186,289,528.186 C156.887,528.186,49.813,421.113,49.813,289z"/>
		<path stroke-width="0.4" d="M51.94,289 C51.94,158.061,158.061,51.94,289,51.94c130.938,0,237.061,106.121,237.061,237.06c0,130.938-106.121,237.061-237.061,237.061 C158.061,526.061,51.94,419.938,51.94,289z"/>
		<path stroke-width="0.4" d="M54.066,289 C54.066,159.235,159.235,54.066,289,54.066c129.764,0,234.934,105.169,234.934,234.934c0,129.764-105.17,234.934-234.934,234.934 C159.235,523.934,54.066,418.764,54.066,289z"/>
		<path stroke-width="0.4" d="M56.192,289 C56.192,160.41,160.41,56.192,289,56.192S521.808,160.41,521.808,289S417.59,521.808,289,521.808S56.192,417.59,56.192,289z"/>
		<path stroke-width="0.4" d="M58.318,289 C58.318,161.584,161.584,58.318,289,58.318c127.415,0,230.682,103.266,230.682,230.682c0,127.415-103.267,230.682-230.682,230.682 C161.584,519.682,58.318,416.415,58.318,289z"/>
		<path stroke-width="0.4" d="M60.444,289 C60.444,162.759,162.759,60.444,289,60.444S517.556,162.759,517.556,289S415.241,517.556,289,517.556S60.444,415.241,60.444,289z" />
		<path stroke-width="0.4" d="M62.571,289 C62.571,163.933,163.933,62.571,289,62.571c125.066,0,226.43,101.362,226.43,226.429c0,125.066-101.362,226.43-226.43,226.43 C163.933,515.43,62.571,414.066,62.571,289z"/>
		<path stroke-width="0.4" d="M64.697,289 c0-123.893,100.41-224.303,224.303-224.303c123.893,0,224.303,100.41,224.303,224.303c0,123.893-100.41,224.303-224.303,224.303 C165.107,513.303,64.697,412.893,64.697,289z"/>
		<path stroke-width="0.4" d="M66.823,289 c0-122.718,99.459-222.177,222.177-222.177S511.177,166.282,511.177,289S411.718,511.177,289,511.177S66.823,411.718,66.823,289z" />
		<path stroke-width="0.4" d="M68.949,289 c0-121.544,98.507-220.051,220.051-220.051S509.051,167.456,509.051,289S410.544,509.051,289,509.051S68.949,410.544,68.949,289z" />
		<path stroke-width="0.4" d="M71.075,289 C71.075,168.63,168.63,71.075,289,71.075c120.369,0,217.925,97.555,217.925,217.925c0,120.369-97.556,217.925-217.925,217.925 C168.63,506.925,71.075,409.369,71.075,289z"/>
		<path stroke-width="0.4" d="M73.201,289 c0-119.195,96.604-215.799,215.799-215.799c119.195,0,215.799,96.604,215.799,215.799c0,119.195-96.604,215.799-215.799,215.799 C169.805,504.799,73.201,408.195,73.201,289z"/>
		<path stroke-width="0.4" d="M75.328,289 c0-118.021,95.651-213.672,213.672-213.672c118.021,0,213.672,95.651,213.672,213.672c0,118.021-95.65,213.672-213.672,213.672 C170.979,502.672,75.328,407.021,75.328,289z"/>
		<path stroke-width="0.4" d="M77.454,289 c0-116.846,94.7-211.546,211.546-211.546c116.846,0,211.547,94.7,211.547,211.546c0,116.846-94.701,211.547-211.547,211.547 C172.154,500.547,77.454,405.846,77.454,289z"/>
		<path stroke-width="0.4" d="M79.58,289 c0-115.672,93.748-209.42,209.42-209.42S498.42,173.328,498.42,289S404.672,498.42,289,498.42S79.58,404.672,79.58,289z"/>
		<path stroke-width="0.4" d="M81.706,289 c0-114.498,92.796-207.294,207.294-207.294S496.294,174.502,496.294,289S403.498,496.294,289,496.294S81.706,403.498,81.706,289z" />
		<path stroke-width="0.4" d="M83.832,289 c0-113.323,91.845-205.168,205.168-205.168S494.168,175.677,494.168,289S402.323,494.168,289,494.168S83.832,402.323,83.832,289z" />
		<path stroke-width="0.4" d="M85.958,289 c0-112.149,90.893-203.042,203.042-203.042c112.148,0,203.041,90.893,203.041,203.042c0,112.148-90.893,203.041-203.041,203.041 C176.851,492.041,85.958,401.148,85.958,289z"/>
		<path stroke-width="0.4" d="M88.085,289 c0-110.975,89.94-200.915,200.915-200.915c110.975,0,200.916,89.94,200.916,200.915c0,110.975-89.941,200.916-200.916,200.916 C178.025,489.916,88.085,399.975,88.085,289z"/>
		<path stroke-width="0.4" d="M90.211,289 C90.211,179.2,179.2,90.211,289,90.211S487.789,179.2,487.789,289S398.8,487.789,289,487.789S90.211,398.8,90.211,289z"/>
		<path stroke-width="0.4" d="M92.337,289 c0-108.626,88.037-196.663,196.663-196.663S485.663,180.374,485.663,289S397.626,485.663,289,485.663S92.337,397.626,92.337,289z" />
		<path stroke-width="0.4" d="M94.463,289 c0-107.452,87.085-194.537,194.537-194.537c107.451,0,194.537,87.085,194.537,194.537c0,107.451-87.086,194.537-194.537,194.537 C181.548,483.537,94.463,396.451,94.463,289z"/>
		<path stroke-width="0.4" d="M96.589,289 c0-106.277,86.134-192.411,192.411-192.411c106.277,0,192.411,86.134,192.411,192.411c0,106.277-86.134,192.411-192.411,192.411 C182.723,481.411,96.589,395.277,96.589,289z"/>
		<path stroke-width="0.4" d="M98.715,289 c0-105.103,85.183-190.285,190.285-190.285c105.102,0,190.285,85.182,190.285,190.285c0,105.104-85.183,190.285-190.285,190.285 C183.897,479.285,98.715,394.104,98.715,289z"/>
		<path stroke-width="0.4" d="M100.842,289 c0-103.929,84.229-188.158,188.158-188.158c103.929,0,188.158,84.229,188.158,188.158c0,103.93-84.229,188.158-188.158,188.158 C185.071,477.158,100.842,392.93,100.842,289z"/>
		<path stroke-width="0.4" d="M102.968,289 c0-102.754,83.278-186.032,186.032-186.032S475.032,186.246,475.032,289S391.754,475.032,289,475.032S102.968,391.754,102.968,289z "/>
		<path stroke-width="0.4" d="M105.094,289 c0-101.58,82.327-183.906,183.906-183.906c101.58,0,183.906,82.327,183.906,183.906c0,101.58-82.326,183.906-183.906,183.906 S105.094,390.58,105.094,289z"/>
		<path stroke-width="0.4" d="M107.22,289 c0-100.405,81.375-181.78,181.78-181.78c100.405,0,181.78,81.375,181.78,181.78c0,100.404-81.375,181.78-181.78,181.78 C188.595,470.78,107.22,389.404,107.22,289z"/>
		<path stroke-width="0.4" d="M109.346,289 c0-99.231,80.422-179.654,179.654-179.654c99.232,0,179.654,80.423,179.654,179.654c0,99.23-80.423,179.654-179.654,179.654 C189.769,468.654,109.346,388.23,109.346,289z"/>
		<path stroke-width="0.4" d="M111.473,289 c0-98.057,79.471-177.527,177.527-177.527c98.056,0,177.527,79.47,177.527,177.527c0,98.057-79.471,177.527-177.527,177.527 C190.943,466.527,111.473,387.057,111.473,289z"/>
		<path stroke-width="0.4" d="M113.599,289 c0-96.882,78.519-175.401,175.401-175.401S464.401,192.118,464.401,289S385.881,464.401,289,464.401 C192.118,464.401,113.599,385.882,113.599,289z"/>
		<path stroke-width="0.4" d="M115.725,289 c0-95.708,77.567-173.275,173.275-173.275S462.275,193.292,462.275,289S384.708,462.275,289,462.275S115.725,384.708,115.725,289z" />
		<path stroke-width="0.4" d="M117.851,289 c0-94.533,76.616-171.149,171.149-171.149S460.149,194.467,460.149,289S383.533,460.149,289,460.149S117.851,383.533,117.851,289z" />
		<path stroke-width="0.4" d="M119.977,289 c0-93.359,75.664-169.023,169.023-169.023c93.359,0,169.023,75.664,169.023,169.023c0,93.359-75.664,169.023-169.023,169.023 C195.641,458.023,119.977,382.359,119.977,289z"/>
		<path stroke-width="0.4" d="M122.103,289 c0-92.185,74.712-166.897,166.897-166.897c92.185,0,166.896,74.712,166.896,166.897c0,92.186-74.713,166.896-166.896,166.896 C196.815,455.896,122.103,381.186,122.103,289z"/>
		<path stroke-width="0.4" d="M124.229,289 c0-91.01,73.76-164.771,164.771-164.771c91.01,0,164.771,73.76,164.771,164.771c0,91.01-73.762,164.771-164.771,164.771 S124.229,380.01,124.229,289z"/>
		<path stroke-width="0.4" d="M126.355,289 c0-89.836,72.809-162.645,162.645-162.645S451.645,199.164,451.645,289S378.836,451.645,289,451.645S126.355,378.836,126.355,289z" />
		<path stroke-width="0.4" d="M128.481,289 c0-88.662,71.856-160.519,160.519-160.519S449.519,200.338,449.519,289S377.662,449.519,289,449.519S128.481,377.662,128.481,289z" />
		<path stroke-width="0.4" d="M130.608,289 c0-87.488,70.904-158.392,158.392-158.392c87.487,0,158.393,70.904,158.393,158.392c0,87.486-70.904,158.393-158.393,158.393 C201.512,447.393,130.608,376.486,130.608,289z"/>
		<path stroke-width="0.4" d="M132.734,289 c0-86.313,69.953-156.266,156.266-156.266c86.313,0,156.266,69.953,156.266,156.266c0,86.313-69.953,156.266-156.266,156.266 C202.687,445.266,132.734,375.313,132.734,289z"/>
		<path stroke-width="0.4" d="M134.86,289 c0-85.139,69.001-154.14,154.14-154.14c85.139,0,154.14,69.001,154.14,154.14c0,85.139-69.001,154.14-154.14,154.14 C203.861,443.14,134.86,374.139,134.86,289z"/>
		<path stroke-width="0.4" d="M136.986,289 c0-83.964,68.05-152.014,152.014-152.014c83.965,0,152.014,68.05,152.014,152.014c0,83.965-68.049,152.014-152.014,152.014 C205.036,441.014,136.986,372.965,136.986,289z"/>
		<path stroke-width="0.4" d="M139.112,289 c0-82.79,67.098-149.888,149.888-149.888S438.888,206.21,438.888,289S371.79,438.888,289,438.888S139.112,371.79,139.112,289z"/>
		<path stroke-width="0.4" d="M141.238,289 c0-81.616,66.146-147.762,147.762-147.762c81.615,0,147.762,66.146,147.762,147.762c0,81.615-66.146,147.762-147.762,147.762 S141.238,370.615,141.238,289z"/>
		<path stroke-width="0.4" d="M143.365,289 c0-80.441,65.194-145.635,145.635-145.635c80.441,0,145.636,65.194,145.636,145.635c0,80.441-65.194,145.636-145.636,145.636 C208.559,434.636,143.365,369.441,143.365,289z"/>
		<path stroke-width="0.4" d="M145.491,289 c0-79.267,64.242-143.509,143.509-143.509c79.267,0,143.509,64.242,143.509,143.509c0,79.268-64.242,143.509-143.509,143.509 C209.733,432.509,145.491,368.268,145.491,289z"/>
		<path stroke-width="0.4" d="M147.617,289 c0-78.093,63.291-141.383,141.383-141.383S430.383,210.907,430.383,289S367.093,430.383,289,430.383S147.617,367.093,147.617,289z" />
		<path stroke-width="0.4" d="M149.743,289 c0-76.918,62.338-139.257,139.257-139.257c76.918,0,139.257,62.338,139.257,139.257c0,76.918-62.339,139.257-139.257,139.257 S149.743,365.918,149.743,289z"/>
		<path stroke-width="0.4" d="M151.869,289 c0-75.744,61.387-137.131,137.131-137.131S426.131,213.256,426.131,289S364.744,426.131,289,426.131S151.869,364.744,151.869,289z" />
		<path stroke-width="0.4" d="M153.996,289 c0-74.569,60.435-135.004,135.004-135.004c74.569,0,135.005,60.435,135.005,135.004c0,74.568-60.436,135.005-135.005,135.005 C214.431,424.005,153.996,363.568,153.996,289z"/>
		<path stroke-width="0.4" d="M156.122,289 c0-73.395,59.483-132.878,132.878-132.878c73.395,0,132.879,59.483,132.879,132.878c0,73.395-59.484,132.879-132.879,132.879 C215.605,421.879,156.122,362.395,156.122,289z"/>
		<path stroke-width="0.4" d="M158.248,289 c0-72.221,58.531-130.752,130.752-130.752c72.221,0,130.752,58.531,130.752,130.752c0,72.221-58.531,130.752-130.752,130.752 C216.779,419.752,158.248,361.221,158.248,289z"/>
		<path stroke-width="0.4" d="M160.374,289 c0-71.046,57.58-128.626,128.626-128.626c71.047,0,128.626,57.58,128.626,128.626c0,71.047-57.579,128.626-128.626,128.626 C217.954,417.626,160.374,360.047,160.374,289z"/>
		<path stroke-width="0.4" d="M415.5,289c0,69.872-56.628,126.5-126.5,126.5 S162.5,358.872,162.5,289S219.128,162.5,289,162.5S415.5,219.128,415.5,289z"/>
	</g>
</svg>
